<svg xmlns="http://www.w3.org/2000/svg" viewBox="0 0 345.73 102.45"><defs><style>.cls-1{fill:#fff;}.cls-2{fill:#0f1343;}</style></defs><title>App Store</title><g id="Преимущества"><path class="cls-1" d="M333.62,102.45H12.12A12.11,12.11,0,0,1,0,90.34V12.12A12.11,12.11,0,0,1,12.12,0h321.5a12.11,12.11,0,0,1,12.11,12.12V90.34a12.11,12.11,0,0,1-12.11,12.11Z"/><path class="cls-2" d="M77.19,50.67c0-8.24,6.75-12.28,7.09-12.44a15.19,15.19,0,0,0-12-6.48c-5-.55-9.91,3-12.51,3s-6.58-3-10.84-2.88a16.06,16.06,0,0,0-13.45,8.19C29.66,50.18,34,65,39.56,73c2.77,4,6,8.41,10.3,8.25s5.7-2.66,10.73-2.66S67,81.27,71.38,81.16s7.31-4,10-8a32.72,32.72,0,0,0,4.54-9.29,14.39,14.39,0,0,1-8.69-13.17ZM69,26.39a14.56,14.56,0,0,0,3.32-10.46,15.1,15.1,0,0,0-9.63,5c-2,2.44-3.92,6.36-3.43,10.07C62.92,31.26,66.68,29.15,69,26.39Z"/><path class="cls-2" d="M137.51,80.71H131.7l-3.21-10H117.42l-3,10h-5.65l11-34.07h6.81Zm-10-14.21-2.88-8.91c-.33-.89-.89-3-1.72-6.42h-.11c-.33,1.44-.88,3.6-1.6,6.42l-2.82,8.91Zm38.12,1.6c0,4.2-1.16,7.47-3.43,9.9a10,10,0,0,1-7.58,3.27c-3.26,0-5.59-1.17-7-3.49V90.67h-5.42V64.17c0-2.6-.05-5.31-.22-8.07h4.81l.34,3.87h.11a9.7,9.7,0,0,1,15.55-1,14,14,0,0,1,2.87,9.13Zm-5.53.22a10.38,10.38,0,0,0-1.6-5.92A5.63,5.63,0,0,0,153.78,60a5.71,5.71,0,0,0-3.66,1.33A6,6,0,0,0,148,64.84a8.6,8.6,0,0,0-.28,1.66v4.09a6.55,6.55,0,0,0,1.66,4.54,6,6,0,0,0,9.07-.56,10.16,10.16,0,0,0,1.72-6.25ZM194,68.1c0,4.2-1.17,7.47-3.44,9.9A10,10,0,0,1,183,81.27c-3.26,0-5.59-1.17-7-3.49V90.67h-5.48V64.17c0-2.6-.06-5.31-.22-8.07h4.81l.33,3.87h.11a9.7,9.7,0,0,1,15.55-1A14,14,0,0,1,194,68.1Zm-5.59.22a10.38,10.38,0,0,0-1.61-5.92A5.62,5.62,0,0,0,182.05,60a5.69,5.69,0,0,0-3.65,1.33,6,6,0,0,0-2.16,3.54A7.53,7.53,0,0,0,176,66.5v4.09a6.55,6.55,0,0,0,1.66,4.54,6,6,0,0,0,9.07-.56,10.23,10.23,0,0,0,1.72-6.25Zm37.18,2.82a9,9,0,0,1-3,7.08c-2.22,2-5.31,3-9.3,3a16.8,16.8,0,0,1-8.85-2.1l1.27-4.54a15,15,0,0,0,7.91,2.1,7.46,7.46,0,0,0,4.82-1.38,4.49,4.49,0,0,0,1.71-3.71,4.72,4.72,0,0,0-1.44-3.48,13.33,13.33,0,0,0-4.7-2.66q-9-3.31-9-9.79a8.53,8.53,0,0,1,3.15-6.86,12.62,12.62,0,0,1,8.36-2.65,16.89,16.89,0,0,1,7.74,1.6l-1.38,4.43a13.41,13.41,0,0,0-6.53-1.55,6.77,6.77,0,0,0-4.54,1.44,4.16,4.16,0,0,0-1.38,3.09A4.07,4.07,0,0,0,212,58.47a17.6,17.6,0,0,0,5,2.66,16.26,16.26,0,0,1,6.47,4.15A8,8,0,0,1,225.6,71.14Zm18.1-10.9h-6V72.19c0,3,1.06,4.54,3.21,4.54a7.83,7.83,0,0,0,2.44-.28l.16,4.15a12.57,12.57,0,0,1-4.26.61,6.46,6.46,0,0,1-5-2q-1.83-2-1.83-6.64V60.19h-3.59V56.1h3.59V51.61l5.37-1.6v6.14h6l-.05,4.09Zm27.11,8a13.53,13.53,0,0,1-3.26,9.29,11.62,11.62,0,0,1-9,3.77,11.12,11.12,0,0,1-8.64-3.6,13,13,0,0,1-3.21-9.07A13.34,13.34,0,0,1,250,59.25a11.48,11.48,0,0,1,8.91-3.65,11.22,11.22,0,0,1,8.69,3.59,12.78,12.78,0,0,1,3.21,9Zm-5.64.11a11.32,11.32,0,0,0-1.44-5.81,5.46,5.46,0,0,0-4.93-2.93,5.55,5.55,0,0,0-5,2.93,11,11,0,0,0-1.44,5.92,11.3,11.3,0,0,0,1.44,5.81,5.62,5.62,0,0,0,9.9-.06,11.06,11.06,0,0,0,1.5-5.86Zm23.4-7.41a9,9,0,0,0-1.71-.17,5.06,5.06,0,0,0-4.43,2.16,8.35,8.35,0,0,0-1.38,4.87V80.66h-5.48V63.84c0-2.6-.06-5.14-.17-7.74h4.76l.22,4.7h.17a8.22,8.22,0,0,1,2.71-3.88,6.92,6.92,0,0,1,3.93-1.32,9.9,9.9,0,0,1,1.38.11v5.2ZM313,67.27a12.33,12.33,0,0,1-.22,2.49H296.43a7.08,7.08,0,0,0,2.38,5.59,8,8,0,0,0,5.37,1.71,18.29,18.29,0,0,0,6.64-1.16l.83,3.76a20.84,20.84,0,0,1-8.25,1.5c-3.82,0-6.8-1.11-9-3.38a12.52,12.52,0,0,1-3.27-9,13.89,13.89,0,0,1,3.05-9.24,10.34,10.34,0,0,1,8.57-3.92,9.11,9.11,0,0,1,8,3.92A13,13,0,0,1,313,67.27Zm-5.2-1.44a7.39,7.39,0,0,0-1.05-4.2,4.69,4.69,0,0,0-4.37-2.27A5.2,5.2,0,0,0,298,61.57a8.28,8.28,0,0,0-1.61,4.26Zm-192-31.25a26.82,26.82,0,0,1-3.93-.23V17.87a33.05,33.05,0,0,1,4.65-.33c6.25,0,9.13,3.09,9.13,8.13,0,5.75-3.43,8.91-9.85,8.91Zm.89-14.94a12.37,12.37,0,0,0-2.16.16V32.31a16.23,16.23,0,0,0,1.83,0c4.09,0,6.41-2.32,6.41-6.69,0-3.87-2.1-6-6.08-6Zm17.93,15c-3.55,0-5.81-2.66-5.81-6.2,0-3.71,2.32-6.36,6-6.36,3.48,0,5.81,2.49,5.81,6.19S138.28,34.69,134.69,34.69Zm.11-10.63c-1.94,0-3.21,1.83-3.21,4.37s1.27,4.32,3.15,4.32,3.16-1.94,3.16-4.37-1.22-4.32-3.1-4.32Zm26.06-1.71L157.1,34.41h-2.49l-1.55-5.26c-.39-1.27-.72-2.6-1-3.92H152a25.32,25.32,0,0,1-1,3.92l-1.66,5.26h-2.49l-3.54-12.06h2.76l1.39,5.75c.33,1.39.61,2.66.83,3.88h0c.23-1,.5-2.27,1-3.88l1.72-5.75h2.21L154.94,28c.39,1.39.72,2.71,1,4H156a32.41,32.41,0,0,1,.83-4l1.49-5.64Zm13.89,12.06h-2.66V27.49c0-2.15-.83-3.2-2.43-3.2A2.8,2.8,0,0,0,167,27.22v7.19h-2.72V25.78c0-1.05,0-2.21-.11-3.43h2.38l.11,1.88h.06a4.39,4.39,0,0,1,3.82-2.1c2.54,0,4.2,1.93,4.2,5.09l.06,7.19Zm7.41,0h-2.71V16.76h2.71V34.41Zm9.8.28c-3.54,0-5.81-2.66-5.81-6.2,0-3.71,2.32-6.36,6-6.36,3.49,0,5.81,2.49,5.81,6.19S195.55,34.69,192,34.69Zm.11-10.63c-1.94,0-3.21,1.83-3.21,4.37s1.27,4.32,3.15,4.32,3.16-1.94,3.16-4.37-1.22-4.32-3.1-4.32Zm16.49,10.35L208.34,33h-.06a4.15,4.15,0,0,1-3.54,1.66A3.51,3.51,0,0,1,201,31.15c0-3,2.6-4.54,7.09-4.54v-.22c0-1.61-.83-2.38-2.49-2.38a5.61,5.61,0,0,0-3.16.88l-.55-1.77a7.44,7.44,0,0,1,4.15-1.05c3.15,0,4.76,1.66,4.76,5v4.43a19.8,19.8,0,0,0,.16,2.87l-2.43.06Zm-.39-6c-3,0-4.48.72-4.48,2.43a1.69,1.69,0,0,0,1.82,1.88,2.58,2.58,0,0,0,2.66-2.43V28.38Zm15.66,6-.11-1.94h-.06a4.06,4.06,0,0,1-3.87,2.22c-2.93,0-5.09-2.55-5.09-6.14,0-3.77,2.21-6.42,5.31-6.42a3.67,3.67,0,0,1,3.43,1.66h.06v-7h2.71V31.15c0,1.16.06,2.26.11,3.26Zm-.39-7.08a2.91,2.91,0,0,0-2.82-3.15c-2,0-3.21,1.77-3.21,4.25s1.27,4.1,3.16,4.1a3,3,0,0,0,2.87-3.21v-2Zm19.76,7.36c-3.54,0-5.81-2.66-5.81-6.2,0-3.71,2.32-6.36,6-6.36,3.49,0,5.81,2.49,5.81,6.19S246.8,34.69,243.2,34.69Zm.11-10.63c-1.94,0-3.16,1.83-3.16,4.37s1.28,4.32,3.16,4.32,3.15-1.94,3.15-4.37S245.19,24.06,243.31,24.06Zm20.36,10.35H261V27.49c0-2.15-.83-3.2-2.43-3.2a2.76,2.76,0,0,0-2.66,2.93v7.19h-2.71V25.78c0-1.05,0-2.21-.11-3.43h2.38l.11,1.88h.05a4.41,4.41,0,0,1,3.82-2.1c2.55,0,4.21,1.93,4.21,5.09v7.19Zm18-10.07h-2.93v5.87c0,1.49.5,2.21,1.55,2.21a7.74,7.74,0,0,0,1.22-.11l.05,2a5.35,5.35,0,0,1-2.1.28c-2.1,0-3.38-1.16-3.38-4.2V24.34h-1.77v-2h1.77V20.14l2.66-.78v3h2.93Zm14.22,10.07h-2.65V27.55c0-2.16-.83-3.26-2.44-3.26a2.66,2.66,0,0,0-2.71,2.87v7.3h-2.66V16.76h2.66V24h.06a4,4,0,0,1,3.65-2c2.54,0,4.09,2,4.09,5.14v7.25ZM310.49,29h-8.08a3.49,3.49,0,0,0,3.82,3.6,10.17,10.17,0,0,0,3.26-.55l.44,1.88a10.26,10.26,0,0,1-4,.72c-3.76,0-6-2.38-6-6.09s2.27-6.47,5.7-6.47c3.1,0,5,2.27,5,5.75A4.56,4.56,0,0,1,310.49,29Zm-2.44-1.93c0-1.88-.94-3.21-2.65-3.21-1.55,0-2.77,1.33-2.94,3.21Z"/></g></svg>