<svg xmlns="http://www.w3.org/2000/svg" viewBox="0 0 343.59 103.27"><defs><style>.cls-1{fill:#fff;stroke:#000;stroke-opacity:0.2;stroke-width:0.82px;}.cls-2{fill:#0f1343;}</style></defs><title>Google Play</title><g id="Преимущества"><rect class="cls-1" x="0.41" y="0.41" width="342.77" height="102.45" rx="12.29"/><path class="cls-2" d="M209.65,46.17a3,3,0,0,1,1.91-2.78h-6.19L202.13,45h3.37v26.9c0,.87-.17,1-1.17,2.31H212l1.6-1c-.73-.09-1.47-.13-2.21-.21-1.42-.14-1.72-.4-1.72-2.1h0Z"/><polygon class="cls-2" points="196.68 24.54 203.86 33.77 206.2 33.77 206.2 20.86 203.78 20.86 203.78 29.8 196.74 20.86 194.26 20.86 194.26 33.77 196.68 33.77 196.68 24.54"/><path class="cls-2" d="M160.27,64.38a10.29,10.29,0,0,0,10.58,10.35,10.65,10.65,0,0,0,11-10.66A10.2,10.2,0,0,0,171.5,53.71C164.91,53.71,160.27,58.63,160.27,64.38Zm6.13-7.86A6,6,0,0,1,170.32,55c5.4,0,7.22,7.39,7.22,11.27a8,8,0,0,1-1.31,4.88,5.51,5.51,0,0,1-4.43,2.24c-5.27,0-7.4-7.17-7.4-11.52A6.74,6.74,0,0,1,166.4,56.52Z"/><path class="cls-2" d="M184.38,34c4.17,0,7.14-2.82,7.14-6.65s-3-6.66-7.14-6.66-7.14,2.82-7.14,6.66S180.2,34,184.38,34Zm0-11.35a4.39,4.39,0,0,1,4.6,4.6,4.6,4.6,0,1,1-9.19,0A4.38,4.38,0,0,1,184.38,22.62Z"/><path class="cls-2" d="M217.44,73a9.29,9.29,0,0,0,5.79,1.7,10,10,0,0,0,4.21-.82c.48-.22,1-.53,1.44-.79l2.07-2h0c.21-.2-.08,0-.08,0a10.63,10.63,0,0,1-5,1.37c-4.12,0-7.86-3.23-8.94-8.78l3.34-.27,10.22-4.15a7.36,7.36,0,0,0-3.05-4.32A8.41,8.41,0,0,0,223,53.71a9.89,9.89,0,0,0-10,10.1A11.34,11.34,0,0,0,217.44,73Zm4.26-18A4.31,4.31,0,0,1,226,58.81c0,.62-.43.88-1.25,1.19l-7.82,3.47c0-.79-.13-1.58-.13-2.32C216.76,56.39,220,55,221.7,55Z"/><path class="cls-2" d="M40.53,86.15l20.58-11.4,4.4-2.43,5.65-3.13h0l-6.33-6.07Z"/><polygon class="cls-2" points="162.63 33.77 165.05 33.77 165.05 22.85 169.22 22.85 169.22 20.86 158.46 20.86 158.46 22.85 162.63 22.85 162.63 33.77"/><path class="cls-2" d="M243.54,71.34a8.7,8.7,0,0,0,7.09,3.81c5.44,0,9.11-4.23,9.11-10.74s-3.67-10.7-9.11-10.7a8.75,8.75,0,0,0-7.09,3.72V54.22h-2.19V82.43h2.19ZM243.6,60c1.18-2,3.9-4.21,6.74-4.21,4.57,0,7.15,3.8,7.15,8.8s-2.58,8.84-7.15,8.84c-2.84,0-5.56-2.33-6.74-4.3Z"/><path class="cls-2" d="M200.48,55.85l2.77-1.58h-8.91a11.79,11.79,0,0,0-7.74,2.4,7.89,7.89,0,0,0-2.77,5.85A6.86,6.86,0,0,0,191,69.36a13.48,13.48,0,0,0,1.38-.09A4,4,0,0,0,192,71a4.6,4.6,0,0,0,1.3,3c-1.95.13-5.58.35-8.26,2a6.27,6.27,0,0,0-3.33,5.32c0,3.23,3,6.24,9.29,6.24,7.44,0,11.38-4.14,11.38-8.24,0-3-1.73-4.49-3.63-6.11l-1.56-1.21A2.42,2.42,0,0,1,196,70.06a3.15,3.15,0,0,1,1.21-2.14c1.82-1.44,3.63-3,3.63-6.19a7.35,7.35,0,0,0-3.06-5.88h2.68ZM199.5,81c0,2.75-2.22,4.8-6.41,4.8-4.66,0-7.67-2.27-7.67-5.42s2.79-4.21,3.76-4.57a17.08,17.08,0,0,1,4.57-.71,6.19,6.19,0,0,1,1,0h0C198.06,77.56,199.5,78.75,199.5,81ZM196,66.76A4.41,4.41,0,0,1,193.05,68c-3.69,0-5.38-4.83-5.38-7.74a5,5,0,0,1,1-3.21,4,4,0,0,1,3-1.44c3.58,0,5.43,4.87,5.43,8A4.43,4.43,0,0,1,196,66.76Z"/><rect class="cls-2" x="262.74" y="46.39" width="2.25" height="28.34"/><path class="cls-2" d="M277.68,62.93A11.9,11.9,0,0,0,271,64.65a5.19,5.19,0,0,0-2.59,4.48,5.59,5.59,0,0,0,1.79,4.37,7.19,7.19,0,0,0,5,1.61,8.73,8.73,0,0,0,4.46-1.1,8.64,8.64,0,0,0,3.2-2.77,12.05,12.05,0,0,0,.11,1.6c.08.53.19,1.15.34,1.86h2.55a12.65,12.65,0,0,1-.44-2,16.16,16.16,0,0,1-.13-2.11V60.43a6,6,0,0,0-2.2-5,9.16,9.16,0,0,0-5.83-1.74,9.25,9.25,0,0,0-5.88,1.77,4.76,4.76,0,0,0-2.13,4.08l0,.11h2.26a3.47,3.47,0,0,1,1.53-2.87,6.66,6.66,0,0,1,4.05-1.15,6.39,6.39,0,0,1,4.23,1.27,4.3,4.3,0,0,1,1.49,3.46v2.55Zm5.14,5.82A6.29,6.29,0,0,1,280,72a8.23,8.23,0,0,1-4.6,1.26h0a5,5,0,0,1-3.39-1.08,3.56,3.56,0,0,1-1.24-2.83,3.83,3.83,0,0,1,1.94-3.2,8.45,8.45,0,0,1,4.9-1.33h5.17Z"/><path class="cls-2" d="M294.38,78.32c-.84,1.94-1.78,2.5-3.12,2.5a5.16,5.16,0,0,1-1.78-.34l-.38,2a8.68,8.68,0,0,0,2.2.29c2.36,0,4.09-1.23,5.18-3.8L307,54.09h-2.48L297.2,71.93l-7.42-17.84h-2.45L296,74.68Z"/><path class="cls-2" d="M72.48,68.45l.09,0,11-6.1c1.29-.72,1.17-1.7.08-2.27-.85-.43-7.12-3.92-9.84-5.44l-8,7.54Z"/><polygon class="cls-2" points="131.85 31.78 124.72 31.78 124.72 28.18 131.71 28.18 131.71 26.18 124.72 26.18 124.72 22.85 131.85 22.85 131.85 20.86 122.27 20.86 122.27 33.77 131.85 33.77 131.85 31.78"/><path class="cls-2" d="M113.47,34a7.74,7.74,0,0,0,5.67-2.35v-4.8H112.6v2h4.14v2A5.17,5.17,0,0,1,113.47,32a4.64,4.64,0,1,1,3.58-7.57l2-1.06a6.59,6.59,0,0,0-5.54-2.66c-4,0-7.25,2.6-7.25,6.65h0C106.22,31.33,109.45,34,113.47,34Z"/><path class="cls-2" d="M37.23,87.48,63.81,62.15,36.59,36.07h0a2.25,2.25,0,0,0,0,.38v49.9A1.11,1.11,0,0,0,37.23,87.48Z"/><rect class="cls-2" x="153.57" y="20.86" width="2.35" height="12.91"/><path class="cls-2" d="M72.51,53.86l-11.4-6.32L39,35.29A2.13,2.13,0,0,0,37.57,35L64.86,61.15Z"/><path class="cls-2" d="M121.76,75.48a43.09,43.09,0,0,0,6.74-.7l5.83-1.35v-5c0-.42,0-1.61.08-2a1,1,0,0,1,.41-.66l1.06-1h-8.65L124,66.53l6.16-.33v6.62a12.18,12.18,0,0,1-5.18,1c-8.89,0-14.44-7.26-14.44-15,0-7.19,4.86-12.12,11.29-12.12a11.62,11.62,0,0,1,8.73,3.86l-1,1.64,1.43-.32,3.39-3.24A15.57,15.57,0,0,0,129,46.12a23.71,23.71,0,0,0-6.25-.85c-10.4,0-16.48,7.38-16.48,15.35C106.22,67.15,110.51,75.48,121.76,75.48Z"/><path class="cls-2" d="M137.19,64.38a10.28,10.28,0,0,0,10.57,10.35,10.65,10.65,0,0,0,11-10.66,10.19,10.19,0,0,0-10.35-10.36C141.83,53.71,137.19,58.63,137.19,64.38Zm6.13-7.86A6,6,0,0,1,147.24,55c5.39,0,7.22,7.39,7.22,11.27a8,8,0,0,1-1.31,4.88,5.53,5.53,0,0,1-4.43,2.24c-5.27,0-7.4-7.17-7.4-11.52A6.7,6.7,0,0,1,143.32,56.52Z"/><polygon class="cls-2" points="138.37 33.77 140.79 33.77 140.79 22.85 144.96 22.85 144.96 20.86 134.2 20.86 134.2 22.85 138.37 22.85 138.37 33.77"/></g></svg>