<svg xmlns="http://www.w3.org/2000/svg" width="2500" height="1181" viewBox="0 0 2500 1181">
  <metadata><?xpacket begin="﻿" id="W5M0MpCehiHzreSzNTczkc9d"?>
<x:xmpmeta xmlns:x="adobe:ns:meta/" x:xmptk="Adobe XMP Core 5.6-c140 79.160451, 2017/05/06-01:08:21        ">
   <rdf:RDF xmlns:rdf="http://www.w3.org/1999/02/22-rdf-syntax-ns#">
      <rdf:Description rdf:about=""/>
   </rdf:RDF>
</x:xmpmeta>
                                                                                                    
                                                                                                    
                                                                                                    
                                                                                                    
                                                                                                    
                                                                                                    
                                                                                                    
                                                                                                    
                                                                                                    
                                                                                                    
                                                                                                    
                                                                                                    
                                                                                                    
                                                                                                    
                                                                                                    
                                                                                                    
                                                                                                    
                                                                                                    
                                                                                                    
                                                                                                    
                           
<?xpacket end="w"?></metadata>
<defs>
    <style>
      .cls-1 {
        fill: #fff;
        fill-rule: evenodd;
      }
    </style>
  </defs>
  <path id="Logo" class="cls-1" d="M147.3,124.934V1029.21H525.43V848.245H382.443V124.934H147.3Zm955.1,374.781q0-139.626-6.7-195.49-6.705-55.845-41.89-103.33-35.19-47.467-93-71.214T830.394,105.943q-76.53,0-134.05,25.135t-91.322,72.051a216.147,216.147,0,0,0-40.215,103.61q-6.428,56.7-6.423,192.976V654.431q0,139.64,6.7,195.49t41.89,103.33q35.189,47.48,93,71.209,57.81,23.745,130.42,23.74,76.515,0,134.05-25.13,57.519-25.14,91.326-72.053a216.266,216.266,0,0,0,40.21-103.61q6.42-56.683,6.42-192.976V499.715ZM867.257,772.842q0,79.88-6.7,101.1-6.7,21.232-30.72,21.224-23.458,0-29.882-18.431t-6.423-97.187V357.287q0-69.813,9.774-84.061t28.207-14.242q21.783,0,28.765,17.594t6.981,80.709V772.842ZM1729.65,418.726q0-111.141-20.67-169.517-20.67-58.359-88.81-100.817-68.145-42.439-171.47-42.449-105.015,0-171.19,48.873-66.195,48.88-80.15,107.519-13.98,58.647-13.97,188.228V719.222q0,93.285,6.7,139.914,6.705,46.644,33.54,89.088t78.54,71.216a224.65,224.65,0,0,0,110.96,28.76q49.74,0,86.35-20.94t60.65-62.838l21.75,64.788h147.77V543.84H1454.28v137.4h47.48v107.24q0,63.124-9.22,84.9t-34.9,21.783q-23.46,0-31.28-19.269t-7.82-80.151V361.755q0-69.25,7.82-86.015t29.6-16.756q25.14,0,31.84,19.549t6.7,97.186v82.105h235.15v-39.1ZM2358,499.715q0-139.626-6.7-195.49-6.705-55.845-41.89-103.33-35.19-47.467-93-71.214-57.795-23.733-130.41-23.738-76.53,0-134.05,25.135-57.54,25.134-91.33,72.051a216.1,216.1,0,0,0-40.21,103.61q-6.435,56.7-6.42,192.976V654.431q0,139.64,6.7,195.49t41.89,103.33q35.19,47.48,93,71.209,57.81,23.745,130.42,23.74,76.515,0,134.05-25.13,57.51-25.14,91.32-72.053a216.266,216.266,0,0,0,40.21-103.61q6.42-56.683,6.42-192.976V499.715ZM2122.86,772.842q0,79.88-6.7,101.1-6.7,21.232-30.72,21.224-23.46,0-29.89-18.431t-6.42-97.187V357.287q0-69.813,9.78-84.061t28.2-14.242q21.78,0,28.77,17.594t6.98,80.709V772.842Z"/>
</svg>
