<?xml version="1.0" encoding="utf-8"?>
<!-- Generator: Adobe Illustrator 17.1.0, SVG Export Plug-In . SVG Version: 6.00 Build 0)  -->
<!DOCTYPE svg PUBLIC "-//W3C//DTD SVG 1.1//EN" "http://www.w3.org/Graphics/SVG/1.1/DTD/svg11.dtd">
<svg version="1.1" id="Layer_1" xmlns="http://www.w3.org/2000/svg" xmlns:xlink="http://www.w3.org/1999/xlink" x="0px" y="0px"
	 viewBox="0 0 1270 723" enable-background="new 0 0 1270 723" xml:space="preserve">
<g id="Layer_2">
	<g id="Layer_1-2">
		<g>
			<path fill="#F5F5F5" d="M387.6,446.5h454.3c47.5,0,85.9,38.5,85.9,85.9v11.9c0,47.5-38.5,85.9-85.9,85.9H387.6
				c-47.5,0-85.9-38.5-85.9-85.9v-11.9C301.6,484.9,340.1,446.5,387.6,446.5z"/>
			<path fill="#F5F5F5" d="M558.5,307.2h454.3c47.5,0,85.9,38.5,85.9,85.9V405c0,47.5-38.5,85.9-85.9,85.9H558.5
				c-47.5,0-85.9-38.5-85.9-85.9v-11.9C472.5,345.6,511,307.2,558.5,307.2z"/>
			<path fill="#F5F5F5" d="M541.7,129.4H996c47.5,0,85.9,38.5,85.9,85.9v11.9c0,47.5-38.5,85.9-85.9,85.9H541.7
				c-47.5,0-85.9-38.5-85.9-85.9v-11.9C455.7,167.9,494.2,129.4,541.7,129.4z"/>
			<path fill="#F5F5F5" d="M257.2,306.5h454.3c47.5,0,85.9,38.5,85.9,85.9v11.9c0,47.5-38.5,85.9-85.9,85.9H257.2
				c-47.5,0-85.9-38.5-85.9-85.9v-11.9C171.2,345,209.7,306.5,257.2,306.5z"/>
			<path fill="#F5F5F5" d="M380.1,217.6h454.3c47.5,0,85.9,38.5,85.9,85.9v11.9c0,47.5-38.5,85.9-85.9,85.9H380.1
				c-47.5,0-85.9-38.5-85.9-85.9v-11.9C294.1,256.1,332.6,217.6,380.1,217.6z"/>
			<path fill="#F5F5F5" d="M632.6,15.5h141.2c47.5,0,85.9,38.5,85.9,85.9v11.9c0,47.5-38.5,85.9-85.9,85.9H632.6
				c-47.5,0-85.9-38.5-85.9-85.9v-11.9C546.6,54,585.1,15.5,632.6,15.5z"/>
			<path fill="#F5F5F5" d="M590.1,539.2h141.2c47.5,0,85.9,38.5,85.9,85.9v11.9c0,47.5-38.5,85.9-85.9,85.9H590.1
				c-47.5,0-85.9-38.5-85.9-85.9v-11.9C504.2,577.7,542.6,539.2,590.1,539.2z"/>
		</g>
		<g>
			
				<circle fill="none" stroke="#BBDEFB" stroke-width="4" stroke-linecap="round" stroke-linejoin="round" stroke-dasharray="21.8683,21.8683" cx="850.4" cy="414.9" r="76.6"/>
		</g>
		<g>
			
				<circle fill="none" stroke="#BBDEFB" stroke-width="4" stroke-linecap="round" stroke-linejoin="round" stroke-dasharray="21.8683,21.8683" cx="557.4" cy="103.5" r="76.6"/>
		</g>
		<g>
			
				<circle fill="none" stroke="#BBDEFB" stroke-width="4" stroke-linecap="round" stroke-linejoin="round" stroke-dasharray="22.1996,22.1996" cx="475.5" cy="300.2" r="98.9"/>
		</g>
		<g>
			
				<circle fill="none" stroke="#BBDEFB" stroke-width="4" stroke-linecap="round" stroke-linejoin="round" stroke-dasharray="21.4595,21.4595" cx="788.2" cy="210.3" r="116.1"/>
		</g>
		<path fill="#BBDEFB" d="M872.8,85.3h-0.3l-1-0.6c-0.6-0.4-1.4-0.8-2.3-1.5c-0.9-0.6-2-1.4-3.2-2.3c-1.2-0.9-2.3-1.9-3.7-3
			c-0.7-0.7-1.4-1.3-2.1-2c-0.7-0.7-1.3-1.4-1.9-2s-1.1-1.3-1.7-2c-0.5-0.7-1-1.4-1.4-2c-0.5-0.8-1-1.7-1.4-2.6
			c-0.4-0.8-0.7-1.7-1-2.6c-0.3-0.8-0.5-1.7-0.6-2.6c-0.1-0.8-0.2-1.7-0.2-2.5c0-1.6,0.3-3.1,0.9-4.5c0.6-1.4,1.5-2.7,2.5-3.8
			c1.1-1.1,2.3-1.9,3.7-2.5c1.4-0.6,3-0.9,4.5-0.9c0.5,0,1.1,0.1,1.6,0.2c0.6,0.1,1.1,0.2,1.7,0.4c0.6,0.2,1.1,0.4,1.6,0.7
			c0.5,0.3,1.1,0.6,1.6,1c1.2,0.8,2.1,1.8,2.9,3c0.4-0.6,0.8-1.1,1.3-1.6c0.5-0.5,1-1,1.6-1.4c0.5-0.4,1-0.7,1.6-1
			c0.5-0.3,1.1-0.5,1.6-0.7c0.5-0.2,1.1-0.3,1.7-0.4c0.5-0.1,1.1-0.2,1.7-0.2c1.6,0,3.1,0.3,4.5,0.9c2.8,1.2,5,3.4,6.2,6.2
			c0.6,1.4,0.9,3,0.9,4.5c0,0.8-0.1,1.7-0.2,2.5c-0.1,0.9-0.4,1.7-0.6,2.6c-0.3,0.9-0.6,1.7-1,2.6c-0.4,0.9-0.9,1.8-1.4,2.6
			c-0.4,0.7-0.9,1.3-1.4,2c-0.5,0.7-1,1.3-1.6,2c-0.6,0.7-1.2,1.4-1.9,2c-0.7,0.7-1.4,1.3-2.1,2c-1.3,1.1-2.5,2.1-3.7,3
			s-2.3,1.7-3.2,2.3c-0.9,0.7-1.7,1.1-2.3,1.5l-1,0.6h-0.3h-0.3L872.8,85.3z M860.1,50.7c-1.1,0.5-2.1,1.2-3,2c-0.9,0.9-1.5,1.9-2,3
			c-0.5,1.2-0.8,2.4-0.7,3.7c0,1.7,0.3,3.3,0.9,4.9c0.6,1.6,1.4,3.1,2.3,4.5c0.9,1.4,1.9,2.8,3.1,4c1.1,1.2,2.2,2.3,3.4,3.3
			c1,0.9,1.9,1.7,2.9,2.5l2.7,2l2.2,1.5l1.5,1l1.5-1l2.2-1.5c0.8-0.6,1.7-1.2,2.7-2s1.9-1.6,2.9-2.5s2.2-2.1,3.3-3.3
			c1.1-1.2,2.2-2.6,3.1-4c0.9-1.4,1.7-2.9,2.3-4.5c0.6-1.6,0.9-3.2,0.9-4.9c0-1.3-0.2-2.5-0.7-3.7c-0.5-1.1-1.2-2.1-2-3
			c-0.9-0.9-1.9-1.5-3-2c-1.2-0.5-2.4-0.7-3.7-0.7c-0.9,0-1.9,0.2-2.7,0.5c-0.9,0.3-1.7,0.8-2.5,1.4c-0.7,0.5-1.4,1.2-2,1.9
			c-0.5,0.6-0.9,1.3-1.2,2.1c-0.1,0.2-0.2,0.4-0.4,0.5c-0.2,0.2-0.4,0.2-0.6,0.2c-0.2,0-0.5-0.1-0.7-0.2c-0.2-0.1-0.3-0.3-0.4-0.5
			c-0.3-0.8-0.7-1.5-1.2-2.1c-1.2-1.5-2.7-2.6-4.4-3.3c-0.9-0.3-1.8-0.5-2.7-0.5C862.6,50,861.3,50.2,860.1,50.7z"/>
		<path fill="#BBDEFB" d="M712.1,38.7h-0.3l-1-0.6c-0.6-0.3-1.3-0.8-2.3-1.5c-1-0.7-2-1.4-3.2-2.3c-1.2-0.9-2.3-1.9-3.7-3
			c-0.7-0.7-1.4-1.3-2.1-2c-0.7-0.7-1.3-1.3-1.9-2c-0.6-0.7-1.2-1.3-1.7-2c-0.5-0.7-1-1.3-1.4-2c-0.5-0.8-1-1.7-1.4-2.6
			c-0.4-0.8-0.7-1.7-1-2.6c-0.3-0.8-0.5-1.7-0.6-2.6c-0.1-0.8-0.2-1.7-0.2-2.5c0-1.6,0.4-3.1,1-4.6c1.2-2.8,3.4-5,6.1-6.2
			c1.4-0.6,3-0.9,4.5-0.9c0.5,0,1.1,0,1.6,0.1c0.6,0.1,1.1,0.3,1.7,0.5c0.6,0.2,1.1,0.4,1.6,0.7c0.5,0.3,1.1,0.6,1.6,1
			c0.6,0.4,1.1,0.9,1.6,1.4c0.5,0.5,0.9,1,1.3,1.6c0.4-0.6,0.8-1.1,1.3-1.6c0.9-0.9,2-1.7,3.2-2.3c0.5-0.3,1.1-0.5,1.6-0.7
			c0.5-0.2,1.1-0.4,1.7-0.5c0.5-0.1,1.1-0.1,1.7-0.1c1.6,0,3.1,0.3,4.5,0.9c1.4,0.6,2.6,1.5,3.7,2.5c1,1.1,1.9,2.3,2.5,3.7
			c0.6,1.4,0.9,3,0.9,4.5c0,0.8-0.1,1.7-0.2,2.5c-0.1,0.9-0.4,1.7-0.6,2.6c-0.3,0.8-0.6,1.7-1,2.6c-0.4,0.9-0.9,1.8-1.4,2.6
			c-0.4,0.7-0.9,1.4-1.4,2c-0.5,0.7-1,1.4-1.7,2c-0.6,0.7-1.2,1.3-1.9,2l-2.1,2c-1.3,1.1-2.5,2.1-3.7,3s-2.3,1.7-3.2,2.3
			c-0.9,0.7-1.7,1.1-2.3,1.5l-1,0.6h-0.3H712.1L712.1,38.7z M699.4,4.1c-1.1,0.5-2.1,1.1-3,2c-0.9,0.9-1.5,1.9-2,3
			c-0.5,1.2-0.7,2.4-0.7,3.7c0,1.7,0.3,3.3,0.9,4.9c0.6,1.6,1.4,3.1,2.3,4.5c0.9,1.4,1.9,2.8,3.1,4c1.1,1.2,2.2,2.3,3.3,3.3
			c1,0.9,1.9,1.7,2.9,2.4c1,0.7,1.9,1.4,2.7,2c0.8,0.6,1.5,1.1,2.2,1.5l1.5,0.9l1.5-0.9c0.6-0.4,1.4-0.9,2.2-1.5
			c0.8-0.6,1.7-1.2,2.7-2c1-0.7,1.9-1.6,2.9-2.4c1-0.9,2.2-2.1,3.3-3.3c1.1-1.2,2.2-2.6,3.1-4c0.9-1.4,1.7-2.9,2.3-4.5
			c0.6-1.6,0.9-3.2,0.9-4.9c0-1.3-0.2-2.5-0.7-3.7c-0.5-1.1-1.2-2.1-2-3c-0.9-0.8-1.9-1.5-3-2c-1.2-0.5-2.4-0.7-3.7-0.7
			c-0.9,0-1.9,0.2-2.7,0.5c-0.9,0.3-1.7,0.8-2.5,1.3c-0.7,0.5-1.4,1.2-2,1.9c-0.5,0.6-0.9,1.3-1.2,2.1c-0.1,0.2-0.2,0.4-0.4,0.5
			c-0.2,0.1-0.4,0.2-0.7,0.2c-0.2,0-0.5-0.1-0.7-0.2c-0.2-0.1-0.3-0.3-0.4-0.5c-0.3-0.8-0.7-1.5-1.2-2.1c-0.6-0.7-1.2-1.4-2-1.9
			c-0.8-0.6-1.6-1-2.5-1.3c-0.9-0.3-1.8-0.5-2.7-0.5C701.8,3.4,700.6,3.6,699.4,4.1z"/>
		<path fill="#BBDEFB" d="M552.6,94.1h-0.3l-1-0.6l-2.3-1.5c-0.9-0.6-2-1.4-3.2-2.3c-1.2-0.9-2.3-1.9-3.7-3c-0.7-0.7-1.5-1.3-2.1-2
			c-0.7-0.7-1.3-1.3-1.9-2c-0.6-0.7-1.1-1.4-1.7-2c-0.5-0.7-1-1.4-1.4-2c-0.5-0.8-1-1.7-1.4-2.6c-0.4-0.8-0.8-1.7-1-2.6
			c-0.3-0.8-0.5-1.7-0.6-2.6c-0.1-0.8-0.2-1.7-0.2-2.5c0-1.6,0.3-3.1,0.9-4.5c0.6-1.4,1.4-2.6,2.5-3.7c1-1.1,2.3-1.9,3.6-2.6
			c1.4-0.6,3-0.9,4.5-0.9c0.5,0,1.1,0,1.6,0.1c0.6,0.1,1.1,0.2,1.7,0.4c1.1,0.4,2.2,1,3.2,1.7c1.1,0.8,2.1,1.9,3,3
			c0.4-0.6,0.8-1.1,1.3-1.6c0.5-0.5,1-1,1.6-1.4c0.5-0.4,1-0.7,1.6-1c0.5-0.3,1.1-0.5,1.6-0.7c0.5-0.2,1.1-0.3,1.7-0.4
			c0.5-0.1,1.1-0.1,1.7-0.1c1.6,0,3.1,0.3,4.5,0.9c2.8,1.2,5,3.4,6.2,6.2c0.6,1.4,0.9,3,0.9,4.5c0,0.9-0.1,1.7-0.2,2.5
			c-0.1,0.9-0.4,1.7-0.6,2.6c-0.3,0.9-0.6,1.7-1,2.6c-0.4,0.9-0.9,1.8-1.4,2.6c-0.4,0.7-0.9,1.4-1.4,2c-0.5,0.7-1,1.4-1.6,2
			c-0.6,0.7-1.2,1.3-1.9,2c-0.7,0.7-1.4,1.3-2.1,2c-1.3,1.1-2.5,2.1-3.7,3c-1.2,0.9-2.3,1.7-3.2,2.3l-2.3,1.5l-1,0.6H553h-0.3
			L552.6,94.1z M539.8,59.5c-2.2,1-4,2.7-5,5c-0.5,1.2-0.8,2.4-0.7,3.7c0,1.7,0.3,3.3,0.9,4.9c0.6,1.6,1.4,3.1,2.3,4.5
			c0.9,1.4,2,2.8,3.1,4c1,1.2,2.2,2.3,3.3,3.3c1,0.9,1.9,1.7,2.9,2.4c1,0.7,1.8,1.4,2.7,2c0.8,0.6,1.6,1.1,2.2,1.5l1.5,1l1.5-1
			c0.7-0.4,1.4-0.9,2.2-1.5c0.8-0.6,1.7-1.2,2.7-2s1.9-1.6,2.9-2.4s2.2-2.1,3.3-3.3c1.1-1.2,2.2-2.6,3.1-4c0.9-1.4,1.7-2.9,2.3-4.5
			c0.6-1.6,0.9-3.2,0.9-4.9c0-1.3-0.2-2.5-0.7-3.7c-1-2.3-2.8-4-5-5c-1.2-0.5-2.4-0.7-3.7-0.7c-0.9,0-1.9,0.2-2.7,0.5
			c-0.9,0.4-1.7,0.8-2.5,1.4c-0.7,0.5-1.4,1.2-2,1.9c-0.5,0.6-0.9,1.3-1.2,2.1c-0.1,0.2-0.2,0.4-0.4,0.6c-0.2,0.1-0.4,0.2-0.6,0.2
			c-0.2,0-0.5-0.1-0.7-0.2c-0.2-0.1-0.3-0.3-0.4-0.6c-0.3-0.8-0.7-1.5-1.2-2.1c-0.6-0.7-1.2-1.3-1.9-1.9c-0.8-0.6-1.6-1-2.5-1.4
			c-0.9-0.3-1.8-0.5-2.8-0.5C542.3,58.8,541,59,539.8,59.5L539.8,59.5z"/>
		<path fill="#BBDEFB" d="M364.1,172.8h-0.3l-1-0.6l-2.3-1.5c-0.9-0.6-2-1.4-3.2-2.3c-1.2-0.9-2.3-1.9-3.7-3c-0.7-0.7-1.5-1.3-2.1-2
			c-0.7-0.7-1.3-1.4-1.9-2c-0.6-0.7-1.1-1.3-1.7-2c-0.5-0.7-1-1.4-1.4-2c-0.5-0.8-1-1.7-1.4-2.6c-0.4-0.8-0.8-1.7-1-2.6
			c-0.3-0.8-0.5-1.7-0.6-2.6c-0.1-0.8-0.2-1.7-0.1-2.6c0-1.5,0.3-3.1,0.9-4.5c0.6-1.4,1.4-2.6,2.5-3.7c1-1,2.2-1.9,3.6-2.5
			c1.4-0.6,3-0.9,4.5-0.9c0.5,0,1.1,0.1,1.6,0.2c0.6,0.1,1.1,0.2,1.7,0.4c0.6,0.2,1.1,0.4,1.6,0.7c0.5,0.3,1.1,0.6,1.6,1
			c0.6,0.4,1.1,0.9,1.6,1.4c0.5,0.5,0.9,1,1.3,1.6c0.4-0.6,0.8-1.1,1.3-1.6c0.5-0.5,1-1,1.6-1.4c0.5-0.4,1-0.7,1.6-1
			c0.5-0.3,1.1-0.5,1.6-0.7c0.5-0.2,1.1-0.3,1.7-0.4c0.5-0.1,1.1-0.2,1.7-0.2c1.6,0,3.1,0.3,4.5,0.9c2.8,1.2,5,3.4,6.2,6.2
			c0.6,1.4,0.9,2.9,0.9,4.5c0,0.9-0.1,1.7-0.2,2.5c-0.1,0.9-0.4,1.7-0.6,2.6c-0.3,0.9-0.6,1.7-1,2.6c-0.4,0.9-0.9,1.8-1.4,2.6
			c-0.4,0.7-0.9,1.3-1.4,2c-0.5,0.7-1,1.3-1.6,2l-1.9,2c-0.7,0.7-1.4,1.3-2.1,2c-1.3,1.1-2.5,2.1-3.7,3c-1.2,0.9-2.3,1.7-3.2,2.3
			c-0.9,0.7-1.7,1.1-2.3,1.5l-1,0.6h-0.3h-0.3L364.1,172.8z M351.3,138.2c-1.1,0.5-2.1,1.2-3,2c-0.9,0.8-1.6,1.9-2,3
			c-0.5,1.2-0.7,2.4-0.7,3.7c0,1.7,0.3,3.3,0.9,4.9c0.6,1.6,1.4,3.1,2.3,4.5c0.9,1.4,1.9,2.8,3.1,4c1,1.2,2,2.3,3.2,3.3
			c1,0.9,1.9,1.7,2.9,2.5c1,0.7,1.8,1.4,2.7,2l2.2,1.5l1.5,0.9l1.5-0.9l2.3-1.5c0.8-0.6,1.7-1.2,2.7-2c1-0.7,1.9-1.6,2.9-2.5
			c1-0.9,2.2-2.1,3.3-3.3c1.1-1.2,2.2-2.6,3.1-4c0.9-1.4,1.7-2.9,2.3-4.5c0.6-1.6,0.9-3.2,0.9-4.9c0-1.3-0.2-2.5-0.7-3.7
			c-0.5-1.1-1.2-2.1-2-3c-0.9-0.9-1.9-1.5-3-2c-1.2-0.5-2.5-0.8-3.8-0.7c-0.9,0-1.9,0.2-2.7,0.5c-0.9,0.3-1.7,0.8-2.5,1.4
			c-0.7,0.5-1.4,1.2-1.9,1.9c-0.5,0.6-0.9,1.3-1.2,2.1c-0.1,0.2-0.2,0.4-0.4,0.5c-0.2,0.2-0.4,0.2-0.6,0.2c-0.2,0-0.5-0.1-0.7-0.2
			c-0.2-0.1-0.3-0.3-0.4-0.5c-0.3-0.8-0.7-1.5-1.2-2.1c-1.2-1.5-2.7-2.6-4.4-3.3c-0.8-0.3-1.7-0.5-2.6-0.5
			C353.8,137.5,352.5,137.7,351.3,138.2z"/>
		<path fill="#BBDEFB" d="M967.9,212.2h-0.3l-1-0.6c-0.6-0.3-1.4-0.8-2.3-1.5s-2-1.4-3.2-2.3c-1.2-0.9-2.3-1.9-3.7-3
			c-0.7-0.7-1.4-1.3-2.1-2c-0.7-0.7-1.3-1.3-1.9-2c-0.6-0.7-1.1-1.3-1.7-2c-0.5-0.7-1-1.3-1.4-2c-0.5-0.8-1-1.7-1.4-2.6
			c-0.4-0.8-0.7-1.7-1-2.6c-0.3-0.8-0.5-1.7-0.6-2.6c-0.1-0.8-0.2-1.7-0.2-2.5c0-1.6,0.3-3.1,0.9-4.5c0.6-1.4,1.5-2.7,2.6-3.7
			c1.1-1.1,2.3-1.9,3.7-2.5c1.4-0.6,3-0.9,4.5-0.9c0.5,0,1.1,0,1.6,0.1c0.6,0.1,1.1,0.3,1.7,0.4c0.6,0.2,1.1,0.4,1.6,0.7
			c0.5,0.3,1.1,0.6,1.6,1c0.6,0.4,1.1,0.9,1.6,1.4c0.5,0.5,0.9,1,1.3,1.6c0.4-0.6,0.8-1.1,1.3-1.6c0.5-0.5,1-1,1.6-1.4
			c0.5-0.4,1-0.7,1.6-1c0.5-0.3,1.1-0.5,1.6-0.7c0.5-0.2,1.1-0.3,1.7-0.4c0.5-0.1,1.1-0.1,1.7-0.1c1.6,0,3.1,0.3,4.5,0.9
			c2.8,1.2,5,3.4,6.2,6.2c0.6,1.4,0.9,3,0.9,4.5c0,0.8-0.1,1.7-0.2,2.5c-0.1,0.9-0.4,1.7-0.6,2.6c-0.3,0.9-0.6,1.8-1,2.6
			c-0.4,0.9-0.9,1.8-1.4,2.6c-0.4,0.7-0.9,1.4-1.4,2c-0.5,0.7-1,1.4-1.7,2c-0.6,0.7-1.2,1.3-1.9,2c-0.7,0.7-1.4,1.3-2.1,2
			c-1.3,1.1-2.5,2.1-3.7,3s-2.3,1.7-3.2,2.3s-1.7,1.1-2.3,1.5l-1,0.6h-0.3L967.9,212.2L967.9,212.2z M955.1,177.6
			c-2.3,0.9-4.1,2.7-5,5c-0.5,1.2-0.8,2.4-0.7,3.7c0,1.7,0.3,3.3,0.9,4.9c0.6,1.6,1.4,3.1,2.3,4.5c0.9,1.4,1.9,2.8,3.1,4
			c1.1,1.2,2.2,2.3,3.4,3.3c1,0.9,1.9,1.7,2.9,2.3l2.7,2c0.8,0.6,1.6,1.1,2.2,1.5l1.5,0.9l1.5-0.9l2.2-1.5c0.8-0.6,1.7-1.2,2.7-2
			c1-0.7,1.9-1.6,2.9-2.3c1-0.8,2.2-2.1,3.3-3.3c1.2-1.2,2.2-2.6,3.1-4c0.9-1.4,1.7-2.9,2.3-4.5c0.6-1.6,0.9-3.2,0.9-4.9
			c0-1.3-0.2-2.5-0.7-3.7c-0.9-2.3-2.7-4.1-5-5c-1.2-0.5-2.4-0.7-3.7-0.7c-0.9,0-1.9,0.2-2.7,0.5c-0.9,0.3-1.7,0.8-2.5,1.3
			c-0.7,0.6-1.4,1.2-2,1.9c-0.5,0.6-0.9,1.3-1.2,2.1c-0.1,0.2-0.2,0.4-0.4,0.5c-0.2,0.1-0.4,0.2-0.6,0.2c-0.2,0-0.5-0.1-0.7-0.2
			c-0.2-0.1-0.3-0.3-0.4-0.5c-0.3-0.8-0.7-1.5-1.2-2.1c-0.6-0.7-1.2-1.4-1.9-1.9c-0.8-0.6-1.6-1-2.5-1.3c-0.9-0.3-1.8-0.5-2.7-0.5
			C957.6,176.8,956.3,177.1,955.1,177.6z"/>
		<path fill="#BBDEFB" d="M463,307.1h-0.3l-1-0.6c-0.6-0.3-1.3-0.8-2.3-1.5c-1-0.7-2-1.4-3.2-2.3c-1.2-0.9-2.3-1.9-3.7-3
			c-0.7-0.7-1.5-1.3-2.1-2c-0.7-0.7-1.3-1.3-1.9-2c-0.6-0.7-1.1-1.3-1.7-2c-0.5-0.7-1-1.3-1.4-2c-0.5-0.8-1-1.7-1.4-2.6
			c-0.4-0.8-0.8-1.7-1-2.6c-0.3-0.8-0.5-1.7-0.6-2.6c-0.1-0.8-0.2-1.7-0.2-2.5c0-1.6,0.3-3.1,0.9-4.5c0.6-1.4,1.4-2.6,2.5-3.7
			c1.1-1,2.3-1.9,3.7-2.5c1.4-0.6,3-0.9,4.5-0.9c0.5,0,1.1,0,1.6,0.1c0.6,0.1,1.1,0.3,1.7,0.4c0.6,0.2,1.1,0.4,1.6,0.7
			c0.6,0.3,1.1,0.6,1.6,1c1.1,0.8,2.1,1.9,2.9,3c0.4-0.6,0.8-1.1,1.3-1.6c0.5-0.5,1-1,1.6-1.4c0.5-0.4,1-0.7,1.6-1
			c0.5-0.3,1.1-0.5,1.6-0.7c0.5-0.2,1.1-0.3,1.7-0.4c0.5-0.1,1.1-0.1,1.7-0.1c1.6,0,3.1,0.3,4.5,0.9c1.4,0.6,2.6,1.4,3.7,2.5
			c1.1,1.1,1.9,2.3,2.5,3.7c0.6,1.4,0.9,3,0.9,4.5c0,0.9-0.1,1.7-0.2,2.5c-0.1,0.9-0.4,1.7-0.6,2.6c-0.3,0.9-0.6,1.8-1,2.6
			c-0.4,0.9-0.9,1.8-1.4,2.6c-0.4,0.7-0.9,1.4-1.4,2c-0.5,0.7-1.1,1.4-1.6,2c-0.6,0.7-1.2,1.3-1.9,2c-0.7,0.7-1.4,1.3-2.1,2
			c-1.3,1.1-2.5,2.1-3.7,3c-1.2,0.9-2.3,1.7-3.2,2.3c-0.9,0.7-1.7,1.1-2.3,1.5l-1,0.6c-0.1,0-0.2,0-0.3,0H463L463,307.1z
			 M450.2,272.5c-1.1,0.5-2.1,1.1-3,2c-1.8,1.8-2.8,4.2-2.8,6.7c0,1.7,0.3,3.3,0.9,4.9c0.6,1.6,1.4,3.2,2.3,4.7c0.9,1.4,2,2.8,3.1,4
			c1,1.2,2.2,2.3,3.3,3.3c1,0.9,1.9,1.7,2.9,2.4c1,0.7,1.8,1.4,2.7,2l2.2,1.5l1.5,0.9l1.5-0.9c0.7-0.4,1.4-0.9,2.3-1.5
			c0.9-0.6,1.7-1.2,2.7-2c1-0.7,1.9-1.6,2.9-2.4s2.2-2.1,3.3-3.3c1.1-1.2,2.2-2.6,3.1-4c0.9-1.5,1.7-3,2.3-4.7
			c0.6-1.6,0.9-3.2,0.9-4.9c0-1.3-0.2-2.5-0.7-3.7c-0.5-1.1-1.2-2.1-2-3c-0.9-0.8-1.9-1.5-3-2c-1.2-0.5-2.4-0.7-3.7-0.7
			c-0.9,0-1.9,0.2-2.7,0.5c-0.9,0.3-1.7,0.8-2.5,1.3c-0.7,0.5-1.4,1.2-1.9,1.9c-0.5,0.6-0.9,1.3-1.2,2.1c-0.1,0.2-0.2,0.4-0.4,0.5
			c-0.2,0.1-0.4,0.2-0.6,0.2c-0.2,0-0.5-0.1-0.7-0.2c-0.2-0.1-0.3-0.3-0.4-0.5c-0.3-0.8-0.6-1.5-1.2-2.1c-0.5-0.7-1.2-1.4-1.9-1.9
			c-0.8-0.6-1.6-1-2.5-1.3c-0.9-0.3-1.8-0.5-2.8-0.5C452.8,271.7,451.4,272,450.2,272.5L450.2,272.5z"/>
		
			<path fill="#FFFFFF" stroke="#1E88E5" stroke-width="6" stroke-linecap="round" stroke-linejoin="round" stroke-miterlimit="10" d="
			M366.9,354.1h253.6c3.9,0,7,3.1,7,7v314.1c0,3.9-3.1,7-7,7H366.9c-3.9,0-7-3.1-7-7V361.1C359.9,357.3,363,354.1,366.9,354.1z"/>
		
			<path fill="#FFFFFF" stroke="#1E88E5" stroke-width="6" stroke-linecap="round" stroke-linejoin="round" stroke-miterlimit="10" d="
			M392.4,579.8h20.9c3.9,0,7,3.1,7,7v20.9c0,3.9-3.1,7-7,7h-20.9c-3.9,0-7-3.1-7-7v-20.9C385.5,582.9,388.6,579.8,392.4,579.8z"/>
		
			<path fill="#FFFFFF" stroke="#1E88E5" stroke-width="6" stroke-linecap="round" stroke-linejoin="round" stroke-miterlimit="10" d="
			M392.4,491.4h20.9c3.9,0,7,3.1,7,7v20.9c0,3.9-3.1,7-7,7h-20.9c-3.9,0-7-3.1-7-7v-20.9C385.5,494.5,388.6,491.4,392.4,491.4z"/>
		
			<path fill="#FFFFFF" stroke="#1E88E5" stroke-width="6" stroke-linecap="round" stroke-linejoin="round" stroke-miterlimit="10" d="
			M392.4,400.7h20.9c3.9,0,7,3.1,7,7v20.9c0,3.9-3.1,7-7,7h-20.9c-3.9,0-7-3.1-7-7v-20.9C385.5,403.8,388.6,400.7,392.4,400.7z"/>
		
			<line fill="#FFFFFF" stroke="#1E88E5" stroke-width="6" stroke-linecap="round" stroke-linejoin="round" stroke-miterlimit="10" x1="457.6" y1="419.3" x2="587.9" y2="419.3"/>
		
			<line fill="#FFFFFF" stroke="#1E88E5" stroke-width="6" stroke-linecap="round" stroke-linejoin="round" stroke-miterlimit="10" x1="457.6" y1="507.7" x2="587.9" y2="507.7"/>
		
			<line fill="#FFFFFF" stroke="#1E88E5" stroke-width="6" stroke-linecap="round" stroke-linejoin="round" stroke-miterlimit="10" x1="457.6" y1="598.4" x2="587.9" y2="598.4"/>
		
			<polyline fill="none" stroke="#1E88E5" stroke-width="6" stroke-linecap="round" stroke-linejoin="round" stroke-miterlimit="10" points="
			439.7,391.2 403.9,426.2 403.9,426.2 390.2,410.9 		"/>
		
			<polyline fill="none" stroke="#1E88E5" stroke-width="6" stroke-linecap="round" stroke-linejoin="round" stroke-miterlimit="10" points="
			440.5,569.1 404.7,604.2 404.7,604.1 391,588.9 		"/>
		
			<polyline fill="none" stroke="#1E88E5" stroke-width="6" stroke-linecap="round" stroke-linejoin="round" stroke-miterlimit="10" points="
			440.5,480.7 404.7,515.7 404.7,515.7 391,500.4 		"/>
		
			<path fill="#BBDEFB" stroke="#1E88E5" stroke-width="6" stroke-linecap="round" stroke-linejoin="round" stroke-miterlimit="10" d="
			M541.3,100.6h260.6c7.7,0,14,6.2,14,14v481.6c0,7.7-6.2,14-14,14H541.3c-7.7,0-14-6.2-14-14V114.5
			C527.4,106.8,533.6,100.6,541.3,100.6z"/>
		
			<rect x="566.9" y="172.7" fill="#FFFFFF" stroke="#1E88E5" stroke-width="6" stroke-linecap="round" stroke-linejoin="round" stroke-miterlimit="10" width="211.7" height="365.3"/>
		
			<circle fill="#FFFFFF" stroke="#1E88E5" stroke-width="4" stroke-linecap="round" stroke-linejoin="round" stroke-miterlimit="10" cx="674.7" cy="572.9" r="12.5"/>
		<line fill="none" x1="625.1" y1="133.1" x2="718.2" y2="133.1"/>
		<polygon fill="#E3F2FD" points="569.9,175.6 774.1,175.6 569.9,532.3 		"/>
		
			<circle fill="none" stroke="#1E88E5" stroke-width="6" stroke-linecap="round" stroke-linejoin="round" stroke-miterlimit="10" cx="674.6" cy="365.3" r="51.3"/>
		
			<polyline fill="none" stroke="#1E88E5" stroke-width="6" stroke-linecap="round" stroke-linejoin="round" stroke-miterlimit="10" points="
			699.6,347.6 663.4,383 663.4,383 649.6,367.5 		"/>
		<path fill="#FFFFFF" d="M668.8,245.4H663c-4.4,0-5.4,0-5.4-4.4v-65.4h14v65.4C671.6,245.4,673.2,245.4,668.8,245.4z"/>
		<path fill="#FFFFFF" d="M695.2,236.1h-5.5c-2.1,0-6.4,0-6.4-2.2v-58.3h16.3v58.9C699.6,235.6,696.2,236.1,695.2,236.1z"/>
	</g>
</g>
</svg>
