<?xml version="1.0" encoding="utf-8"?>
<!-- Generator: Adobe Illustrator 17.1.0, SVG Export Plug-In . SVG Version: 6.00 Build 0)  -->
<!DOCTYPE svg PUBLIC "-//W3C//DTD SVG 1.1//EN" "http://www.w3.org/Graphics/SVG/1.1/DTD/svg11.dtd">
<svg version="1.1" id="Layer_1" xmlns="http://www.w3.org/2000/svg" xmlns:xlink="http://www.w3.org/1999/xlink" x="0px" y="0px"
	 viewBox="0 0 1270 723" enable-background="new 0 0 1270 723" xml:space="preserve">
<g id="Layer_2">
	<g id="Layer_1-2">
		<g>
			<path fill="#F5F5F5" d="M344.6,450.2h513.2c47.6,0,86.2,38.6,86.2,86.2v8.8c0,47.6-38.6,86.2-86.2,86.2H344.6
				c-47.6,0-86.2-38.6-86.2-86.2v-8.8C258.4,488.8,297,450.2,344.6,450.2z"/>
			<path fill="#F5F5F5" d="M508.4,312.8h513.2c47.6,0,86.2,38.6,86.2,86.2v8.8c0,47.6-38.6,86.2-86.2,86.2H508.4
				c-47.6,0-86.2-38.6-86.2-86.2V399C422.1,351.4,460.7,312.8,508.4,312.8z"/>
			<path fill="#F5F5F5" d="M396.6,71.9h252.6c47.6,0,86.2,38.6,86.2,86.2l0,0c0,47.6-38.6,86.2-86.2,86.2H396.6
				c-47.6,0-86.2-38.6-86.2-86.2l0,0C310.4,110.5,349,71.9,396.6,71.9z"/>
			<path fill="#F5F5F5" d="M466.6,137.5h513.2c47.6,0,86.2,38.6,86.2,86.2v8.8c0,47.6-38.6,86.2-86.2,86.2H466.6
				c-47.6,0-86.2-38.6-86.2-86.2v-8.8C380.4,176.1,419,137.5,466.6,137.5z"/>
			<path fill="#F5F5F5" d="M248.5,312.2h513.2c47.6,0,86.2,38.6,86.2,86.2v8.8c0,47.6-38.6,86.2-86.2,86.2H248.5
				c-47.6,0-86.2-38.6-86.2-86.2v-8.8C162.3,350.8,200.9,312.2,248.5,312.2z"/>
			<path fill="#F5F5F5" d="M336.4,224.5h513.2c47.6,0,86.2,38.6,86.2,86.2v8.8c0,47.6-38.6,86.2-86.2,86.2H336.4
				c-47.6,0-86.2-38.6-86.2-86.2v-8.8C250.1,263.1,288.7,224.5,336.4,224.5z"/>
			<path fill="#F5F5F5" d="M566.3,541.7h170.4c47.6,0,86.2,38.6,86.2,86.2v8.8c0,47.6-38.6,86.2-86.2,86.2H566.3
				c-47.6,0-86.2-38.6-86.2-86.2v-8.8C480.1,580.3,518.7,541.7,566.3,541.7z"/>
		</g>
		
			<path fill="#BBDEFB" stroke="#1E88E5" stroke-width="4" stroke-linecap="round" stroke-linejoin="round" stroke-miterlimit="10" d="
			M723.2,132.6h286.9c3.9,0,7,3.1,7,7v406c0,3.9-3.1,7-7,7H723.2c-3.9,0-7-3.1-7-7v-406C716.2,135.7,719.3,132.6,723.2,132.6z"/>
		
			<line fill="none" stroke="#1E88E5" stroke-width="4" stroke-linecap="round" stroke-linejoin="round" stroke-miterlimit="10" x1="781.4" y1="424.1" x2="951.8" y2="424.1"/>
		
			<line fill="none" stroke="#1E88E5" stroke-width="4" stroke-linecap="round" stroke-linejoin="round" stroke-miterlimit="10" x1="781.4" y1="445.1" x2="951.8" y2="445.1"/>
		
			<circle fill="#90CAF9" stroke="#1E88E5" stroke-width="4" stroke-linecap="round" stroke-linejoin="round" stroke-miterlimit="10" cx="866.6" cy="279.2" r="107.2"/>
		<g>
			<defs>
				<circle id="SVGID_1_" cx="866.6" cy="279.2" r="107.2"/>
			</defs>
			<clipPath id="SVGID_2_">
				<use xlink:href="#SVGID_1_"  overflow="visible"/>
			</clipPath>
			<g clip-path="url(#SVGID_2_)">
				
					<path fill="#BBDEFB" stroke="#1E88E5" stroke-width="4" stroke-linecap="round" stroke-linejoin="round" stroke-miterlimit="10" d="
					M882.8,297.7c16.9-7.3,27.8-24,27.7-42.4c0-24.8-20-45.1-44.8-45.3c-24.7-0.1-44.7,19.8-44.8,44.5c0,0,0,0.1,0,0.1
					c0,18.9,11.7,36.6,28.1,43.3c-37.9,9.3-62.8,43.2-63.8,96.9H948C948,341.2,921.2,306.3,882.8,297.7z"/>
			</g>
			<use xlink:href="#SVGID_1_"  overflow="visible" fill="none" stroke="#1E88E5" stroke-width="4" stroke-miterlimit="10"/>
		</g>
		<path fill="#90CAF9" d="M815.2,473.4H918c3.9,0,7,3.1,7,7v25.9c0,3.9-3.1,7-7,7H815.2c-3.9,0-7-3.1-7-7v-25.9
			C808.2,476.6,811.3,473.4,815.2,473.4z"/>
		
			<polygon fill="#BBDEFB" stroke="#1E88E5" stroke-width="4" stroke-linecap="round" stroke-linejoin="round" stroke-miterlimit="10" points="
			934.7,373.8 934.7,413.4 946.2,404 958.1,413.7 958.1,373.8 		"/>
		
			<path fill="#BBDEFB" stroke="#1E88E5" stroke-width="4" stroke-linecap="round" stroke-linejoin="round" stroke-miterlimit="10" d="
			M973.7,355c0-1.5-0.1-3-0.4-4.5l-7-2.1l4.4-5.8c-1.3-2.7-3.1-5.1-5.2-7.2l-6.9,2.3l0.2-7.3c-2.6-1.4-5.5-2.3-8.4-2.7l-4,6.1
			l-4.1-6c-2.9,0.4-5.8,1.4-8.4,2.7l0.2,7.3l-6.8-2.3c-2.1,2.1-3.9,4.5-5.2,7.2l4.4,5.8l-7,2.1c-0.2,1.5-0.4,3-0.4,4.5
			c0,1.5,0.1,2.9,0.4,4.4l7,2.1l-4.5,5.8c1.3,2.7,3.1,5.1,5.2,7.2l7-2.3l-0.2,7.3c2.6,1.4,5.5,2.3,8.4,2.8l4.2-6.1l4.2,6.1
			c2.9-0.5,5.8-1.4,8.4-2.8l-0.2-7.3l7,2.3c2.1-2.1,3.9-4.5,5.2-7.2l-4.5-5.8l7-2.1C973.8,358,973.8,356.5,973.7,355z"/>
		
			<polyline fill="none" stroke="#1E88E5" stroke-width="4" stroke-linecap="round" stroke-linejoin="round" stroke-miterlimit="10" points="
			955.9,348.6 943.4,361.1 943.1,360.8 936.8,354.6 		"/>
		
			<path fill="#BBDEFB" stroke="#1E88E5" stroke-width="4" stroke-linecap="round" stroke-linejoin="round" stroke-miterlimit="10" d="
			M277,132.6h286.9c3.9,0,7,3.1,7,7v406c0,3.9-3.1,7-7,7H277c-3.9,0-7-3.1-7-7v-406C270,135.7,273.2,132.6,277,132.6z"/>
		
			<line fill="none" stroke="#1E88E5" stroke-width="4" stroke-linecap="round" stroke-linejoin="round" stroke-miterlimit="10" x1="335.3" y1="424.1" x2="505.7" y2="424.1"/>
		
			<line fill="none" stroke="#1E88E5" stroke-width="4" stroke-linecap="round" stroke-linejoin="round" stroke-miterlimit="10" x1="335.3" y1="445.1" x2="505.7" y2="445.1"/>
		
			<circle fill="#90CAF9" stroke="#1E88E5" stroke-width="4" stroke-linecap="round" stroke-linejoin="round" stroke-miterlimit="10" cx="420.5" cy="279.2" r="107.2"/>
		<g>
			<defs>
				<circle id="SVGID_3_" cx="420.5" cy="279.2" r="107.2"/>
			</defs>
			<clipPath id="SVGID_4_">
				<use xlink:href="#SVGID_3_"  overflow="visible"/>
			</clipPath>
			<g clip-path="url(#SVGID_4_)">
				
					<path fill="#BBDEFB" stroke="#1E88E5" stroke-width="4" stroke-linecap="round" stroke-linejoin="round" stroke-miterlimit="10" d="
					M436.7,297.7c16.9-7.3,27.8-24,27.7-42.4c0-24.8-20-45.1-44.8-45.3c-24.7-0.1-44.7,19.8-44.8,44.5c0,0,0,0.1,0,0.1
					c0,18.9,11.7,36.6,28,43.3c-37.9,9.3-62.8,43.2-63.8,96.9h162.8C501.9,341.2,475,306.3,436.7,297.7z"/>
			</g>
			<use xlink:href="#SVGID_3_"  overflow="visible" fill="none" stroke="#1E88E5" stroke-width="4" stroke-miterlimit="10"/>
		</g>
		<path fill="#90CAF9" d="M369.1,473.4h102.8c3.9,0,7,3.1,7,7v25.9c0,3.9-3.1,7-7,7H369.1c-3.9,0-7-3.1-7-7v-25.9
			C362.1,476.6,365.2,473.4,369.1,473.4z"/>
		
			<path fill="#FFFFFF" stroke="#1E88E5" stroke-width="4" stroke-linecap="round" stroke-linejoin="round" stroke-miterlimit="10" d="
			M483.2,210.3h320.6c3.9,0,7,3.1,7,7v453.1c0,3.9-3.1,7-7,7H483.2c-3.9,0-7-3.1-7-7V217.3C476.2,213.4,479.4,210.3,483.2,210.3z"/>
		
			<line fill="none" stroke="#1E88E5" stroke-width="4" stroke-linecap="round" stroke-linejoin="round" stroke-miterlimit="10" x1="543" y1="537.7" x2="744.1" y2="537.7"/>
		
			<line fill="none" stroke="#1E88E5" stroke-width="4" stroke-linecap="round" stroke-linejoin="round" stroke-miterlimit="10" x1="543" y1="562.5" x2="744.1" y2="562.5"/>
		
			<circle fill="#90CAF9" stroke="#1E88E5" stroke-width="4" stroke-linecap="round" stroke-linejoin="round" stroke-miterlimit="10" cx="643.6" cy="366.7" r="126.6"/>
		<g>
			<defs>
				<circle id="SVGID_5_" cx="643.6" cy="366.7" r="126.6"/>
			</defs>
			<clipPath id="SVGID_6_">
				<use xlink:href="#SVGID_5_"  overflow="visible"/>
			</clipPath>
			<g clip-path="url(#SVGID_6_)">
				
					<path fill="#FFFFFF" stroke="#1E88E5" stroke-width="4" stroke-linecap="round" stroke-linejoin="round" stroke-miterlimit="10" d="
					M663.4,388c19.9-8.5,32.7-28.1,32.7-49.7c0.2-29.2-23.4-53-52.6-53.2c-29.2-0.2-53,23.4-53.2,52.6l0,0
					c0,22.2,13.7,42.8,33.2,50.6c-44.7,10.9-74.1,50.9-75.2,113.9h192.1C740.4,439.2,708.8,398.2,663.4,388z"/>
			</g>
			<use xlink:href="#SVGID_5_"  overflow="visible" fill="none" stroke="#1E88E5" stroke-width="4" stroke-miterlimit="10"/>
		</g>
		
			<line stroke="#1E88E5" stroke-width="4" stroke-linecap="round" stroke-linejoin="round" stroke-miterlimit="10" x1="591.1" y1="325.6" x2="693.2" y2="325.6"/>
		
			<line stroke="#1E88E5" stroke-width="4" stroke-linecap="round" stroke-linejoin="round" stroke-miterlimit="10" x1="686.9" y1="398.8" x2="686.9" y2="431.2"/>
		
			<line stroke="#1E88E5" stroke-width="4" stroke-linecap="round" stroke-linejoin="round" stroke-miterlimit="10" x1="598.5" y1="398.8" x2="598.5" y2="431.2"/>
		
			<line stroke="#1E88E5" stroke-width="4" stroke-linecap="round" stroke-linejoin="round" stroke-miterlimit="10" x1="566.3" y1="433.7" x2="722.6" y2="433.7"/>
		
			<polygon fill="#FFFFFF" stroke="#1E88E5" stroke-width="4" stroke-linecap="round" stroke-linejoin="round" stroke-miterlimit="10" points="
			712.9,476.5 712.9,515.1 725.6,505.6 738.6,515.3 738.6,476.5 		"/>
		
			<path fill="#FFFFFF" stroke="#1E88E5" stroke-width="4" stroke-linecap="round" stroke-linejoin="round" stroke-miterlimit="10" d="
			M753.1,456.6c0-1.5-0.1-3-0.4-4.5l-7-2.1l4.4-5.8c-1.3-2.7-3.1-5.1-5.2-7.2l-6.8,2.3l0.2-7.3c-2.6-1.4-5.5-2.3-8.4-2.7l-4.1,6
			l-4.1-6c-2.9,0.4-5.8,1.4-8.4,2.7l0.2,7.3l-6.9-2.3c-2.1,2.1-3.9,4.5-5.2,7.2l4.4,5.8l-7,2.1c-0.2,1.5-0.4,3-0.4,4.5
			c0,1.5,0.1,2.9,0.4,4.4l7,2.1l-4.3,5.8c1.3,2.7,3.1,5.1,5.2,7.2l7-2.5l-0.2,7.3c2.6,1.4,5.5,2.3,8.4,2.8l4.2-6.1l4.2,6.1
			c2.9-0.5,5.8-1.4,8.4-2.8l-0.2-7.3l7,2.5c2.1-2.1,3.9-4.5,5.2-7.2l-4.8-5.8l7-2.1C753,459.5,753.1,458.1,753.1,456.6z"/>
		
			<polyline fill="none" stroke="#1E88E5" stroke-width="4" stroke-linecap="round" stroke-linejoin="round" stroke-miterlimit="10" points="
			735.3,450.2 723.5,462.7 723.5,462.7 716.3,456.2 		"/>
		<path fill="#90CAF9" d="M581.6,596h123.9c3.9,0,7,3.1,7,7v33.1c0,3.9-3.1,7-7,7H581.6c-3.9,0-7-3.1-7-7V603
			C574.6,599.1,577.7,596,581.6,596z"/>
		<path fill="#BBDEFB" d="M778.4,67.5h-0.3l-11.7-6.4l-11.7,6.4c-0.2,0.1-0.4,0.1-0.6,0.1c-0.2,0-0.4-0.1-0.6-0.2
			c-0.2-0.1-0.3-0.3-0.4-0.5c-0.1-0.2-0.1-0.4,0-0.6l2.1-12.7l-8.4-8.4c-0.2-0.1-0.3-0.3-0.3-0.5c-0.1-0.2-0.1-0.4,0-0.6
			c0-0.2,0.2-0.4,0.3-0.5c0.2-0.1,0.4-0.2,0.6-0.3l12.7-2.1l5.2-10.8c0.1-0.2,0.2-0.3,0.4-0.5c0.4-0.2,0.8-0.2,1.2,0
			c0.2,0.1,0.3,0.3,0.4,0.5l5.3,10.6l12.7,2.1c0.2,0,0.4,0.1,0.6,0.3c0.2,0.1,0.3,0.3,0.3,0.5c0.1,0.2,0.1,0.4,0,0.6
			c0,0.2-0.2,0.4-0.3,0.5l-8.4,8.4l2.1,12.7c0.1,0.2,0.1,0.4,0,0.6c-0.1,0.2-0.2,0.4-0.4,0.5c-0.1,0.1-0.2,0.1-0.3,0.1
			c-0.1,0-0.2,0-0.4,0L778.4,67.5z M766.7,58.7l0.3,0.1l10.2,5.6l-1.8-11.1c0-0.2,0-0.3,0-0.5c0.1-0.2,0.2-0.3,0.3-0.5l7.5-7.3
			l-11.2-1.9c-0.2,0-0.4-0.1-0.5-0.2c-0.1-0.1-0.2-0.2-0.3-0.4l-4.6-9.1l-4.6,9.1c-0.1,0.2-0.2,0.3-0.3,0.4
			c-0.1,0.1-0.3,0.2-0.5,0.2L750,45l7.4,7.3c0.1,0.1,0.2,0.3,0.3,0.5c0,0.2,0,0.3,0,0.5l-1.8,11.1l10.2-5.6l0.3-0.1h0.3H766.7z"/>
		<path fill="#BBDEFB" d="M1029,96.1h-0.3l-11.7-6.4l-11.7,6.4c-0.2,0.1-0.4,0.2-0.6,0.1c-0.2,0-0.4-0.1-0.6-0.2
			c-0.2-0.1-0.3-0.3-0.4-0.5c-0.1-0.2-0.1-0.4,0-0.6l2.1-12.7l-8.4-8.5c-0.2-0.1-0.3-0.3-0.3-0.5c-0.1-0.2-0.1-0.4,0-0.6
			c0.1-0.2,0.2-0.4,0.3-0.5c0.2-0.1,0.4-0.2,0.6-0.3l12.7-2.1l5.3-10.5c0.1-0.2,0.2-0.4,0.4-0.5c0.4-0.2,0.8-0.2,1.2,0
			c0.2,0.1,0.3,0.3,0.4,0.5l5.3,10.5l12.7,2.1c0.2,0,0.4,0.1,0.6,0.3c0.1,0.1,0.3,0.3,0.3,0.5c0.1,0.2,0.1,0.4,0,0.6
			c0,0.2-0.2,0.4-0.3,0.5l-8.4,8.5l2.1,12.7c0.1,0.2,0.1,0.4,0,0.6c-0.1,0.2-0.2,0.4-0.4,0.5c-0.1,0.1-0.2,0.1-0.3,0.1
			c-0.1,0-0.2,0-0.4,0L1029,96.1z M1017.4,87.3h0.3l10.2,5.6l-1.8-11.1c0-0.2,0-0.3,0-0.5c0.1-0.2,0.2-0.3,0.3-0.4l7.4-7.4
			l-11.2-1.9c-0.2,0-0.4-0.1-0.5-0.2c-0.1-0.1-0.3-0.2-0.3-0.4l-4.7-9.1l-4.6,9.1c-0.1,0.2-0.2,0.3-0.3,0.4
			c-0.1,0.1-0.3,0.2-0.5,0.2l-11.2,1.9l7.4,7.4c0.1,0.1,0.2,0.3,0.3,0.4c0,0.2,0,0.3,0,0.5l-1.8,11.1l10.2-5.6h0.3h0.3L1017.4,87.3z
			"/>
		<path fill="#BBDEFB" d="M211,214.5h-0.3l-11.7-6.4l-11.7,6.4c-0.2,0.1-0.4,0.1-0.6,0c-0.2,0-0.4-0.1-0.6-0.2
			c-0.2-0.1-0.3-0.3-0.4-0.5c-0.1-0.2-0.1-0.4,0-0.6l2.1-12.7l-8.5-8.4c-0.2-0.1-0.3-0.3-0.3-0.5c-0.1-0.2-0.1-0.4,0-0.6
			c0.1-0.2,0.2-0.4,0.3-0.5c0.2-0.1,0.4-0.2,0.6-0.3l12.7-2.1l5.3-10.7c0.1-0.2,0.2-0.3,0.4-0.5c0.4-0.2,0.8-0.2,1.2,0
			c0.2,0.1,0.3,0.3,0.4,0.5l5.3,10.6l12.7,2.1c0.2,0,0.4,0.1,0.6,0.3c0.2,0.1,0.3,0.3,0.3,0.5c0.1,0.2,0.1,0.4,0,0.6
			c0,0.2-0.2,0.4-0.3,0.5l-8.4,8.4l2.1,12.7c0.1,0.2,0.1,0.4,0,0.6c-0.1,0.2-0.2,0.4-0.4,0.5c-0.1,0.1-0.2,0.1-0.3,0.1
			c-0.1,0-0.2,0-0.4,0L211,214.5z M199.3,205.7h0.3l10.2,5.6l-1.8-11.1c0-0.2,0-0.3,0-0.5c0.1-0.2,0.2-0.3,0.3-0.5l7.4-7.3
			l-11.2-1.9c-0.2,0-0.4-0.1-0.5-0.2c-0.1-0.1-0.2-0.2-0.3-0.4l-4.6-9.1l-4.6,9.1c-0.1,0.2-0.2,0.3-0.3,0.4
			c-0.1,0.1-0.3,0.2-0.5,0.2l-11.2,1.9l7.4,7.3c0.1,0.1,0.2,0.3,0.3,0.5c0,0.2,0,0.3,0,0.5l-1.8,11.1l10.2-5.6h0.3h0.3H199.3z"/>
		<path fill="#BBDEFB" d="M638.4,137.5h-0.3l-11.7-6.4l-11.7,6.4c-0.2,0.1-0.4,0.1-0.6,0.1c-0.2,0-0.4-0.1-0.6-0.2
			c-0.2-0.1-0.3-0.3-0.4-0.5c-0.1-0.2-0.1-0.4,0-0.6l2.1-12.7l-8.4-8.4c-0.2-0.1-0.3-0.3-0.3-0.5c-0.1-0.2-0.1-0.4,0-0.6
			c0-0.2,0.2-0.4,0.3-0.5c0.2-0.1,0.4-0.2,0.6-0.3l12.7-2.1l5.2-10.8c0.1-0.2,0.2-0.3,0.4-0.5c0.4-0.2,0.8-0.2,1.2,0
			c0.2,0.1,0.3,0.3,0.4,0.5l5.3,10.6l12.7,2.1c0.2,0,0.4,0.1,0.6,0.3c0.2,0.1,0.3,0.3,0.3,0.5c0.1,0.2,0.1,0.4,0,0.6
			c0,0.2-0.2,0.4-0.3,0.5l-8.4,8.4l2.1,12.7c0.1,0.2,0.1,0.4,0,0.6c-0.1,0.2-0.2,0.4-0.4,0.5c-0.1,0.1-0.2,0.1-0.3,0.1
			c-0.1,0-0.2,0-0.4,0L638.4,137.5z M626.7,128.7h0.3l10.2,5.6l-1.8-11.1c0-0.2,0-0.3,0-0.5c0.1-0.2,0.2-0.3,0.3-0.5l7.5-7.2
			l-11.2-1.9c-0.2,0-0.4-0.1-0.5-0.2c-0.1-0.1-0.2-0.2-0.3-0.4l-4.7-9.1l-4.6,9.1c-0.1,0.2-0.2,0.3-0.3,0.4
			c-0.1,0.1-0.3,0.2-0.5,0.2l-11.2,1.9l7.4,7.3c0.1,0.1,0.2,0.3,0.3,0.5c0,0.2,0,0.3,0,0.5l-1.8,11.1l10.2-5.6h0.3h0.3L626.7,128.7z
			"/>
		
			<line fill="none" stroke="#BBDEFB" stroke-width="4" stroke-linecap="round" stroke-linejoin="round" stroke-miterlimit="10" x1="902.1" y1="65" x2="868" y2="65"/>
		
			<line fill="none" stroke="#BBDEFB" stroke-width="4" stroke-linecap="round" stroke-linejoin="round" stroke-miterlimit="10" x1="885" y1="47.9" x2="885" y2="82"/>
		
			<line fill="none" stroke="#BBDEFB" stroke-width="4" stroke-linecap="round" stroke-linejoin="round" stroke-miterlimit="10" x1="365.3" y1="41.6" x2="331.2" y2="41.6"/>
		
			<line fill="none" stroke="#BBDEFB" stroke-width="4" stroke-linecap="round" stroke-linejoin="round" stroke-miterlimit="10" x1="348.3" y1="24.6" x2="348.3" y2="58.7"/>
		
			<line fill="none" stroke="#BBDEFB" stroke-width="4" stroke-linecap="round" stroke-linejoin="round" stroke-miterlimit="10" x1="640.7" y1="19.8" x2="606.6" y2="19.8"/>
		
			<line fill="none" stroke="#BBDEFB" stroke-width="4" stroke-linecap="round" stroke-linejoin="round" stroke-miterlimit="10" x1="623.6" y1="2.8" x2="623.6" y2="36.9"/>
		<path fill="#BBDEFB" d="M486.4,44.3l-0.3-0.1l-11.7-6.3l-11.7,6.3c-0.2,0.1-0.4,0.2-0.6,0.1c-0.2,0-0.4-0.1-0.6-0.2
			c-0.2-0.1-0.3-0.3-0.4-0.5c-0.1-0.2-0.1-0.4,0-0.6l2.1-12.7l-8.4-8.5c-0.2-0.1-0.3-0.3-0.3-0.5c-0.1-0.2-0.1-0.4,0-0.6
			c0.1-0.2,0.2-0.4,0.3-0.5c0.2-0.1,0.4-0.2,0.6-0.3l12.7-2.1l5.3-10.5c0.1-0.2,0.2-0.4,0.4-0.5c0.4-0.2,0.8-0.2,1.2,0
			c0.2,0.1,0.3,0.3,0.4,0.5l5.3,10.5l12.7,2.1c0.2,0,0.4,0.1,0.6,0.3c0.2,0.1,0.3,0.3,0.3,0.5c0.1,0.2,0.1,0.4,0,0.6
			c0,0.2-0.2,0.4-0.3,0.5l-8.4,8.5l2.1,12.7c0.1,0.2,0.1,0.4,0,0.6c-0.1,0.2-0.2,0.4-0.4,0.5l-0.3,0.1l-0.4,0H486.4z M474.7,35.5
			l0.3,0.1l10.2,5.6l-1.8-11.1c0-0.2,0-0.3,0-0.5c0.1-0.2,0.2-0.3,0.3-0.4l7.4-7.4L479.8,20c-0.2,0-0.3-0.1-0.5-0.2
			c-0.1-0.1-0.2-0.3-0.3-0.4l-4.6-9.1l-4.7,9.1c-0.1,0.2-0.2,0.3-0.3,0.4c-0.1,0.1-0.3,0.2-0.5,0.2l-11.2,1.9l7.4,7.4
			c0.1,0.1,0.2,0.3,0.3,0.4c0,0.2,0,0.3,0,0.5l-1.8,11.1l10.2-5.6l0.3-0.1h0.6H474.7z"/>
	</g>
</g>
</svg>
