<?xml version="1.0" encoding="utf-8"?>
<!-- Generator: Adobe Illustrator 17.1.0, SVG Export Plug-In . SVG Version: 6.00 Build 0)  -->
<!DOCTYPE svg PUBLIC "-//W3C//DTD SVG 1.1//EN" "http://www.w3.org/Graphics/SVG/1.1/DTD/svg11.dtd">
<svg version="1.1" id="Layer_1" xmlns="http://www.w3.org/2000/svg" xmlns:xlink="http://www.w3.org/1999/xlink" x="0px" y="0px"
	 viewBox="0 0 1270 723" enable-background="new 0 0 1270 723" xml:space="preserve">
<g id="Layer_2">
	<g id="Layer_2-2">
		<g>
			<path fill="#F5F5F5" d="M376.3,469.9h476.2c44.2,0,80,35.8,80,80v8.2c0,44.2-35.8,80-80,80H376.3c-44.2,0-80-35.8-80-80v-8.2
				C296.3,505.7,332.2,469.9,376.3,469.9z"/>
			<path fill="#F5F5F5" d="M550,342.4h476.2c44.2,0,80,35.8,80,80v8.2c0,44.2-35.8,80-80,80H550c-44.2,0-80-35.8-80-80v-8.2
				C470,378.2,505.8,342.4,550,342.4z"/>
			<path fill="#F5F5F5" d="M532.9,179.7h476.2c44.2,0,80,35.8,80,80v8.2c0,44.2-35.8,80-80,80H532.9c-44.2,0-80-35.8-80-80v-8.2
				C452.9,215.5,488.7,179.7,532.9,179.7z"/>
			<path fill="#F5F5F5" d="M243.8,341.8H720c44.2,0,80,35.8,80,80v8.2c0,44.2-35.8,80-80,80H243.8c-44.2,0-80-35.8-80-80v-8.2
				C163.8,377.6,199.7,341.8,243.8,341.8z"/>
			<path fill="#F5F5F5" d="M368.7,260.4h476.2c44.2,0,80,35.8,80,80v8.2c0,44.2-35.8,80-80,80H368.7c-44.2,0-80-35.8-80-80v-8.2
				C288.7,296.2,324.5,260.4,368.7,260.4z"/>
			<path fill="#F5F5F5" d="M625.2,75.5h158.1c44.2,0,80,35.8,80,80v8.2c0,44.2-35.8,80-80,80H625.2c-44.2,0-80-35.8-80-80v-8.2
				C545.2,111.3,581,75.5,625.2,75.5z"/>
			<path fill="#F5F5F5" d="M582.1,554.8h158.1c44.2,0,80,35.8,80,80v8.2c0,44.2-35.8,80-80,80H582.1c-44.2,0-80-35.8-80-80v-8.2
				C502.1,590.6,537.9,554.8,582.1,554.8z"/>
		</g>
		<path fill="#BBDEFB" stroke="#1E88E5" stroke-width="4" stroke-miterlimit="10" d="M872.8,285.6c-2.2,0-3.9,0.8-3.9,3l-3.9,106.1
			c0,2,1.7,3.6,3.7,3.5c0.1,0,0.2,0,0.3,0h25.7c2.2,0,4-1.8,3.9-4c0,0,0,0,0,0l-3.9-105.6c0-2.2-1.8-3-3.9-3L872.8,285.6z"/>
		<path fill="#FFFFFF" stroke="#1E88E5" stroke-width="4" stroke-linejoin="round" stroke-miterlimit="10" d="M945.8,183.1
			c0,0-13.7-37.2-41.4-37.5c-10,0-43.3,0.2-43.3,0.2l-3.9,12h-10.8v19.5h10.8l3.9,6.5h36.7l4.6-7.3
			C902.3,176.5,923.7,161.8,945.8,183.1z"/>
		<path fill="#FFFFFF" stroke="#1E88E5" stroke-width="4" stroke-linejoin="round" stroke-miterlimit="10" d="M840.8,155.7h2
			c3,0,5.5,2.5,5.5,5.5v17.2c0,3-2.5,5.5-5.5,5.5h-2c-3,0-5.5-2.5-5.5-5.5v-17.2C835.4,158.1,837.8,155.7,840.8,155.7z"/>
		<circle fill="#1E88E5" cx="876.7" cy="335" r="2"/>
		<circle fill="#1E88E5" cx="876.7" cy="315.3" r="2"/>
		<circle fill="#1E88E5" cx="886.6" cy="315.3" r="2"/>
		<circle fill="#1E88E5" cx="876.7" cy="325.1" r="2"/>
		<ellipse fill="#1E88E5" cx="886.8" cy="335" rx="2.1" ry="2"/>
		<circle fill="#1E88E5" cx="886.6" cy="325.1" r="2"/>
		
			<rect x="872.2" y="183.8" fill="#FFFFFF" stroke="#1E88E5" stroke-width="4" stroke-linejoin="round" stroke-miterlimit="10" width="19.5" height="101.8"/>
		<rect x="874.3" y="185.8" fill="#BBDEFB" width="4.3" height="95.6"/>
		
			<line fill="#FFFFFF" stroke="#1E88E5" stroke-width="4" stroke-linejoin="round" stroke-miterlimit="10" x1="872.2" y1="200.1" x2="891.7" y2="200.1"/>
		<path fill="#90CAF9" stroke="#1E88E5" stroke-width="6" stroke-miterlimit="10" d="M448.8,221.7h337.9c3.6,0,6.5,2.9,6.5,6.5
			v253.4c0,3.6-2.9,6.5-6.5,6.5H448.8c-3.6,0-6.5-2.9-6.5-6.5V228.2C442.3,224.6,445.2,221.7,448.8,221.7z"/>
		<path fill="#FFFFFF" stroke="#1E88E5" stroke-width="4" stroke-miterlimit="10" d="M482.4,244.5h279.4c3.6,0,6.5,2.9,6.5,6.5
			v207.9c0,3.6-2.9,6.5-6.5,6.5H482.4c-3.6,0-6.5-2.9-6.5-6.5V251C475.9,247.4,478.8,244.5,482.4,244.5z"/>
		<line fill="none" stroke="#1E88E5" stroke-width="4" stroke-miterlimit="10" x1="444.7" y1="223.2" x2="619.5" y2="49.5"/>
		<line fill="none" stroke="#1E88E5" stroke-width="4" stroke-miterlimit="10" x1="620.1" y1="50.1" x2="791.5" y2="223.9"/>
		<path fill="#E3F2FD" d="M477.8,250.3v209c0,2.1,1.8,3.9,3.5,2.6l284.4-215.5H481.7C479.6,246.3,477.8,248.1,477.8,250.3z"/>
		<polygon fill="none" stroke="#1E88E5" stroke-width="4" stroke-linejoin="round" stroke-miterlimit="10" points="553.4,397.1 
			623.7,465.4 483.2,465.4 		"/>
		<polygon fill="#FFFFFF" stroke="#1E88E5" stroke-width="4" stroke-linejoin="round" stroke-miterlimit="10" points="658.9,371.8 
			755.3,465.4 562.5,465.4 		"/>
		<circle fill="none" stroke="#1E88E5" stroke-width="6" stroke-miterlimit="10" cx="691.1" cy="308.1" r="30.1"/>
		<polyline fill="none" stroke="#1E88E5" stroke-width="2" stroke-linejoin="round" stroke-miterlimit="10" points="689.1,402.3 
			671,418.4 671,418.4 655,402.3 655,402.3 645.2,412.1 644.9,412.4 630.9,400.3 		"/>
		<g>
			
				<line fill="none" stroke="#BBDEFB" stroke-width="4" stroke-linecap="round" stroke-linejoin="round" stroke-miterlimit="10" x1="819.6" y1="17" x2="788" y2="17"/>
			
				<line fill="none" stroke="#BBDEFB" stroke-width="4" stroke-linecap="round" stroke-linejoin="round" stroke-miterlimit="10" x1="803.8" y1="1.2" x2="803.8" y2="32.8"/>
			
				<line fill="none" stroke="#BBDEFB" stroke-width="4" stroke-linecap="round" stroke-linejoin="round" stroke-miterlimit="10" x1="1019.4" y1="243.7" x2="987.7" y2="243.7"/>
			
				<line fill="none" stroke="#BBDEFB" stroke-width="4" stroke-linecap="round" stroke-linejoin="round" stroke-miterlimit="10" x1="1003.6" y1="227.9" x2="1003.6" y2="259.5"/>
			
				<line fill="none" stroke="#BBDEFB" stroke-width="4" stroke-linecap="round" stroke-linejoin="round" stroke-miterlimit="10" x1="529.4" y1="43.8" x2="497.7" y2="43.8"/>
			
				<line fill="none" stroke="#BBDEFB" stroke-width="4" stroke-linecap="round" stroke-linejoin="round" stroke-miterlimit="10" x1="513.6" y1="28" x2="513.6" y2="59.6"/>
			
				<circle fill="none" stroke="#BBDEFB" stroke-width="4" stroke-linecap="round" stroke-linejoin="round" stroke-miterlimit="10" cx="920.9" cy="88.9" r="13.4"/>
			
				<circle fill="none" stroke="#BBDEFB" stroke-width="4" stroke-linecap="round" stroke-linejoin="round" stroke-miterlimit="10" cx="444.7" cy="145.6" r="13.4"/>
			
				<circle fill="none" stroke="#BBDEFB" stroke-width="4" stroke-linecap="round" stroke-linejoin="round" stroke-miterlimit="10" cx="734.6" cy="88.9" r="13.4"/>
			
				<line fill="none" stroke="#BBDEFB" stroke-width="4" stroke-linecap="round" stroke-linejoin="round" stroke-miterlimit="10" x1="319.7" y1="234.7" x2="288.1" y2="234.7"/>
			
				<line fill="none" stroke="#BBDEFB" stroke-width="4" stroke-linecap="round" stroke-linejoin="round" stroke-miterlimit="10" x1="303.9" y1="218.9" x2="303.9" y2="250.5"/>
		</g>
		<polyline fill="none" stroke="#1E88E5" stroke-width="6" stroke-linejoin="round" stroke-miterlimit="10" points="369.7,377.7 
			405.5,377.7 405.5,436.1 282,436.1 282,508.7 		"/>
		<path fill="#BBDEFB" stroke="#1E88E5" stroke-width="4" stroke-miterlimit="10" d="M187.8,346.3h190.6c3.6,0,6.5,2.9,6.5,6.5v47.6
			c0,3.6-2.9,6.5-6.5,6.5H187.8c-3.6,0-6.5-2.9-6.5-6.5v-47.6C181.3,349.2,184.2,346.3,187.8,346.3z"/>
		<path fill="#FFFFFF" stroke="#1E88E5" stroke-width="4" stroke-miterlimit="10" d="M274.4,489.2h15.2c3.6,0,6.5,2.9,6.5,6.5V578
			c0,3.6-2.9,6.5-6.5,6.5h-15.2c-3.6,0-6.5-2.9-6.5-6.5v-82.3C267.9,492.1,270.9,489.2,274.4,489.2z"/>
		<path fill="#BBDEFB" d="M273.6,491.4h7.3l0,0v91l0,0h-4.5c-3.5,0-6.3-2.8-6.3-6.3v-81.1C270.1,492.9,271.7,491.4,273.6,491.4z"/>
		<circle fill="#BBDEFB" stroke="#1E88E5" stroke-width="2" stroke-miterlimit="10" cx="281.8" cy="568.9" r="6"/>
		<line fill="none" stroke="#FFFFFF" stroke-width="4" stroke-miterlimit="10" x1="291.6" y1="348.3" x2="291.6" y2="364.2"/>
		<line fill="none" stroke="#FFFFFF" stroke-width="4" stroke-miterlimit="10" x1="277.7" y1="348.3" x2="277.7" y2="372.6"/>
		<path fill="#FFFFFF" stroke="#1E88E5" stroke-width="6" stroke-miterlimit="10" d="M615.5,447h259.9c3.6,0,6.5,2.9,6.5,6.5v212.2
			c0,3.6-2.9,6.5-6.5,6.5H615.5c-3.6,0-6.5-2.9-6.5-6.5V453.5C609,449.9,612,447,615.5,447z"/>
		<path fill="#BBDEFB" stroke="#1E88E5" stroke-width="6" stroke-miterlimit="10" d="M613.5,447h263.9c2.5,0,4.4,2,4.4,4.4v57.4
			c0,2.5-2,4.4-4.4,4.4H613.5c-2.5,0-4.4-2-4.4-4.4v-57.4C609,448.9,611,447,613.5,447z"/>
		<line fill="none" x1="610.1" y1="516.3" x2="883" y2="516.3"/>
		
			<line fill="#FFFFFF" stroke="#1E88E5" stroke-width="4" stroke-linecap="round" stroke-linejoin="round" stroke-miterlimit="10" x1="655.6" y1="465.4" x2="655.6" y2="435"/>
		
			<line fill="#FFFFFF" stroke="#1E88E5" stroke-width="4" stroke-linecap="round" stroke-linejoin="round" stroke-miterlimit="10" x1="833.2" y1="465.4" x2="833.2" y2="435"/>
		<path fill="#BBDEFB" d="M612.3,516.3h23.8l0,0v151.6l0,0h-17.3c-3.6,0-6.5-3-6.5-6.7V516.3L612.3,516.3z"/>
		<path fill="#FFFFFF" stroke="#1E88E5" stroke-width="2" stroke-miterlimit="10" d="M671.8,622.4H687c1.2,0,2.2,1,2.2,2.2v15.2
			c0,1.2-1,2.2-2.2,2.2h-15.2c-1.2,0-2.2-1-2.2-2.2v-15.2C669.7,623.4,670.7,622.4,671.8,622.4z"/>
		<path fill="#FFFFFF" stroke="#1E88E5" stroke-width="2" stroke-miterlimit="10" d="M706.5,622.4h15.2c1.2,0,2.2,1,2.2,2.2v15.2
			c0,1.2-1,2.2-2.2,2.2h-15.2c-1.2,0-2.2-1-2.2-2.2v-15.2C704.3,623.4,705.3,622.4,706.5,622.4z"/>
		<path fill="#FFFFFF" stroke="#1E88E5" stroke-width="2" stroke-miterlimit="10" d="M741.2,622.4h15.2c1.2,0,2.2,1,2.2,2.2v15.2
			c0,1.2-1,2.2-2.2,2.2h-15.2c-1.2,0-2.2-1-2.2-2.2v-15.2C739,623.4,740,622.4,741.2,622.4z"/>
		<path fill="#FFFFFF" stroke="#1E88E5" stroke-width="2" stroke-miterlimit="10" d="M775.8,622.4H791c1.2,0,2.2,1,2.2,2.2v15.2
			c0,1.2-1,2.2-2.2,2.2h-15.2c-1.2,0-2.2-1-2.2-2.2v-15.2C773.6,623.4,774.6,622.4,775.8,622.4z"/>
		<path fill="#FFFFFF" stroke="#1E88E5" stroke-width="2" stroke-miterlimit="10" d="M812.6,622.4h15.2c1.2,0,2.2,1,2.2,2.2v15.2
			c0,1.2-1,2.2-2.2,2.2h-15.2c-1.2,0-2.2-1-2.2-2.2v-15.2C810.5,623.4,811.4,622.4,812.6,622.4z"/>
		<path fill="#FFFFFF" stroke="#1E88E5" stroke-width="2" stroke-miterlimit="10" d="M671.8,585.6H687c1.2,0,2.2,1,2.2,2.2v15.2
			c0,1.2-1,2.2-2.2,2.2h-15.2c-1.2,0-2.2-1-2.2-2.2v-15.2C669.7,586.5,670.7,585.6,671.8,585.6z"/>
		<path fill="#FFFFFF" stroke="#1E88E5" stroke-width="2" stroke-miterlimit="10" d="M706.5,585.6h15.2c1.2,0,2.2,1,2.2,2.2v15.2
			c0,1.2-1,2.2-2.2,2.2h-15.2c-1.2,0-2.2-1-2.2-2.2v-15.2C704.3,586.5,705.3,585.6,706.5,585.6z"/>
		<path fill="#FFFFFF" stroke="#1E88E5" stroke-width="2" stroke-miterlimit="10" d="M706.5,546.6h15.2c1.2,0,2.2,1,2.2,2.2v15.2
			c0,1.2-1,2.2-2.2,2.2h-15.2c-1.2,0-2.2-1-2.2-2.2v-15.2C704.3,547.6,705.3,546.6,706.5,546.6z"/>
		<path fill="#FFFFFF" stroke="#1E88E5" stroke-width="2" stroke-miterlimit="10" d="M671.8,546.6H687c1.2,0,2.2,1,2.2,2.2v15.2
			c0,1.2-1,2.2-2.2,2.2h-15.2c-1.2,0-2.2-1-2.2-2.2v-15.2C669.7,547.6,670.7,546.6,671.8,546.6z"/>
		<path fill="#FFFFFF" stroke="#1E88E5" stroke-width="2" stroke-miterlimit="10" d="M741.2,585.6h15.2c1.2,0,2.2,1,2.2,2.2v15.2
			c0,1.2-1,2.2-2.2,2.2h-15.2c-1.2,0-2.2-1-2.2-2.2v-15.2C739,586.5,740,585.6,741.2,585.6z"/>
		<path fill="#BBDEFB" stroke="#1E88E5" stroke-width="2" stroke-miterlimit="10" d="M775.8,585.6H791c1.2,0,2.2,1,2.2,2.2v15.2
			c0,1.2-1,2.2-2.2,2.2h-15.2c-1.2,0-2.2-1-2.2-2.2v-15.2C773.6,586.5,774.6,585.6,775.8,585.6z"/>
		<path fill="#FFFFFF" stroke="#1E88E5" stroke-width="2" stroke-miterlimit="10" d="M812.6,585.6h15.2c1.2,0,2.2,1,2.2,2.2v15.2
			c0,1.2-1,2.2-2.2,2.2h-15.2c-1.2,0-2.2-1-2.2-2.2v-15.2C810.5,586.5,811.4,585.6,812.6,585.6z"/>
		<path fill="#FFFFFF" stroke="#1E88E5" stroke-width="2" stroke-miterlimit="10" d="M812.6,546.6h15.2c1.2,0,2.2,1,2.2,2.2v15.2
			c0,1.2-1,2.2-2.2,2.2h-15.2c-1.2,0-2.2-1-2.2-2.2v-15.2C810.5,547.6,811.4,546.6,812.6,546.6z"/>
		<path fill="#FFFFFF" stroke="#1E88E5" stroke-width="2" stroke-miterlimit="10" d="M775.8,546.6H791c1.2,0,2.2,1,2.2,2.2v15.2
			c0,1.2-1,2.2-2.2,2.2h-15.2c-1.2,0-2.2-1-2.2-2.2v-15.2C773.6,547.6,774.6,546.6,775.8,546.6z"/>
		<path fill="#FFFFFF" stroke="#1E88E5" stroke-width="2" stroke-miterlimit="10" d="M741.2,546.6h15.2c1.2,0,2.2,1,2.2,2.2v15.2
			c0,1.2-1,2.2-2.2,2.2h-15.2c-1.2,0-2.2-1-2.2-2.2v-15.2C739,547.6,740,546.6,741.2,546.6z"/>
		<circle fill="#FFFFFF" stroke="#1E88E5" stroke-width="4" stroke-miterlimit="10" cx="656.6" cy="474.9" r="10.4"/>
		<circle fill="#FFFFFF" stroke="#1E88E5" stroke-width="4" stroke-miterlimit="10" cx="834.4" cy="474.9" r="10.4"/>
		<circle fill="#1E88E5" cx="619.5" cy="49.3" r="8.5"/>
		<circle fill="#FFFFFF" stroke="#1E88E5" stroke-width="6" stroke-miterlimit="10" cx="174.7" cy="376.6" r="3.6"/>
	</g>
</g>
</svg>
