<svg width="500" height="500" viewBox="0 0 500 500" fill="none" xmlns="http://www.w3.org/2000/svg">
<path d="M500 250C500 111.929 388.071 0 250 0C111.929 0 0 111.929 0 250C0 388.071 111.929 500 250 500C388.071 500 500 388.071 500 250Z" fill="url(#paint0_linear)"/>
<mask id="mask0" mask-type="alpha" maskUnits="userSpaceOnUse" x="0" y="0" width="500" height="500">
<path d="M500 250C500 111.929 388.071 0 250 0C111.929 0 0 111.929 0 250C0 388.071 111.929 500 250 500C388.071 500 500 388.071 500 250Z" fill="url(#paint1_linear)"/>
</mask>
<g mask="url(#mask0)">
<path d="M460 255.4L451.29 306L424.92 295.7C424.92 295.7 420.14 285.1 412.42 277.14L411.42 263.08L448.49 269.28L460 255.4Z" fill="#F6CBC5"/>
<path d="M398.04 244.29L417.07 293.84L434.43 292.76L419.93 253.36L404.48 243.23L398.04 244.29Z" fill="#F6CBC5"/>
<path d="M404.16 230.9L404.47 230.99C406.062 231.47 407.401 232.558 408.196 234.018C408.992 235.478 409.18 237.193 408.72 238.79V238.79C408.389 239.947 407.733 240.984 406.831 241.779C405.929 242.575 404.819 243.096 403.63 243.28L398.28 244.11L404.16 230.9Z" fill="#F6CBC5"/>
<path d="M377.28 158.87V251.75C377.321 252.874 377.728 253.953 378.439 254.823C379.151 255.694 380.127 256.307 381.22 256.571L443.22 269.231V267.62L451.1 269.231V168.31L389.1 155.65C388.83 155.595 388.555 155.568 388.28 155.571H380.44C380.012 155.566 379.587 155.649 379.192 155.815C378.797 155.981 378.441 156.226 378.145 156.536C377.848 156.845 377.619 157.212 377.47 157.613C377.321 158.015 377.257 158.443 377.28 158.87V158.87Z" fill="#D87F64"/>
<path d="M365.47 158.871V251.751C365.509 252.874 365.916 253.954 366.627 254.825C367.339 255.696 368.316 256.309 369.41 256.571L431.41 269.231V168.311L369.41 155.651C368.93 155.526 368.428 155.516 367.943 155.621C367.459 155.727 367.006 155.946 366.622 156.26C366.238 156.574 365.934 156.974 365.733 157.427C365.533 157.881 365.443 158.376 365.47 158.871V158.871Z" fill="#B73D3D"/>
<path d="M353.81 172.39V265.27C353.81 266.331 354.231 267.348 354.982 268.099C355.732 268.849 356.749 269.27 357.81 269.27H435.32V168.37H357.83C357.301 168.368 356.777 168.47 356.288 168.671C355.8 168.872 355.355 169.168 354.982 169.542C354.608 169.916 354.312 170.36 354.111 170.849C353.909 171.338 353.807 171.862 353.81 172.39V172.39Z" fill="#FFADB7"/>
<path d="M361.68 172.39V265.27C361.68 266.331 362.101 267.348 362.852 268.099C363.602 268.849 364.619 269.27 365.68 269.27H443.19V168.37H365.7C365.171 168.368 364.647 168.47 364.158 168.671C363.67 168.872 363.225 169.168 362.852 169.542C362.478 169.916 362.182 170.36 361.981 170.849C361.78 171.338 361.677 171.862 361.68 172.39V172.39Z" fill="#E8605C"/>
<path d="M369.56 172.39V265.27C369.56 266.331 369.981 267.348 370.732 268.099C371.482 268.849 372.499 269.27 373.56 269.27H451.07V168.37H373.58C373.051 168.368 372.527 168.47 372.038 168.671C371.55 168.872 371.105 169.168 370.732 169.542C370.358 169.916 370.062 170.36 369.861 170.849C369.659 171.338 369.557 171.862 369.56 172.39V172.39Z" fill="#F29D7E"/>
<path d="M436.15 191.92H385.4C383.6 191.92 382.14 193.379 382.14 195.18V200.73C382.14 202.53 383.6 203.99 385.4 203.99H436.15C437.95 203.99 439.41 202.53 439.41 200.73V195.18C439.41 193.379 437.95 191.92 436.15 191.92Z" fill="#FCD98E"/>
<path d="M429.16 216.061H392.38C391.717 216.061 391.18 216.598 391.18 217.261V219.391C391.18 220.053 391.717 220.591 392.38 220.591H429.16C429.823 220.591 430.36 220.053 430.36 219.391V217.261C430.36 216.598 429.823 216.061 429.16 216.061Z" fill="#FCD98E"/>
<path d="M457.57 237L437.35 226L418.19 223.48C417.684 223.413 417.17 223.446 416.677 223.578C416.184 223.71 415.722 223.939 415.318 224.25C414.914 224.562 414.575 224.95 414.321 225.393C414.068 225.835 413.904 226.324 413.84 226.83V226.83C413.714 227.791 413.952 228.763 414.508 229.557C415.063 230.351 415.895 230.909 416.84 231.12L434.68 235.27L451.2 247.54L435.65 242.07L418.57 242.81C417.806 242.844 417.086 243.178 416.568 243.74C416.049 244.302 415.773 245.046 415.8 245.81V245.81C415.825 246.461 416.067 247.084 416.487 247.581C416.908 248.077 417.483 248.419 418.12 248.55L433.51 251.69L449.51 263.41L452.03 269.61C452.03 269.61 457.49 262.61 460.03 255.41C460 255.4 464.72 244.34 457.57 237Z" fill="#F6CBC5"/>
<path d="M460.91 242.79L452.73 220L438.68 209.53L426.29 208C425.405 207.893 424.513 208.139 423.809 208.686C423.104 209.233 422.645 210.036 422.53 210.92V210.92C422.419 211.743 422.616 212.578 423.083 213.264C423.55 213.951 424.254 214.441 425.06 214.64L435.66 217.29L445.03 224.43L447.03 234.36L460.91 242.79Z" fill="#F6CBC5"/>
<path d="M454.47 258.3C446.9 255.375 438.736 254.315 430.67 255.21L418.67 259.74C417.821 260.042 417.111 260.644 416.673 261.431C416.236 262.219 416.099 263.139 416.29 264.02C416.521 264.774 417.04 265.407 417.735 265.781C418.429 266.155 419.243 266.241 420 266.02L430.75 263.32L442.03 265.06L449.92 274.89C451.131 273.534 452.141 272.012 452.92 270.37C454.664 266.601 455.205 262.387 454.47 258.3V258.3Z" fill="#F6CBC5"/>
<path d="M329.58 274.431C329.58 274.431 352.67 287.181 363.81 311.891C374.95 336.601 424.32 424.261 424.32 424.261L388.09 447.771L313.46 351.541L329.58 274.431Z" fill="#FFE4C9"/>
<path d="M389.26 396.79C398.72 376.05 417.82 319.6 416.89 288.95L452.64 296.54C452.64 296.54 447.64 344.69 444.15 379.83C440.66 414.97 434.79 440.49 418.88 455.75C402.97 471.01 366.13 447.57 389.26 396.79Z" fill="#F6CBC5"/>
<path d="M265.55 183.891C265.457 192.684 265.457 201.617 265.55 210.691C265.743 227.817 266.257 244.467 267.09 260.641C267.09 260.641 273.45 286.541 250.77 290.921C238.08 293.381 233.1 273.031 220.51 271.801C215.87 271.341 208.59 273.091 198.62 285.361C207.058 266.787 209.723 246.107 206.27 226.001L265.55 183.891Z" fill="#F6CBC5"/>
<path d="M340.14 283.45C358.25 280.2 380.26 361.6 397.51 358.11C407.56 356.11 410.57 326.33 410.9 293.02L458.71 294.93C463.531 331.995 461.596 369.626 453 406C445.11 439.07 439.35 463.24 422.4 469.18C394.16 479.08 345.88 429.72 330.61 377.28C318.07 334.29 326.71 285.85 340.14 283.45Z" fill="#2D9678"/>
<g style="mix-blend-mode:multiply" opacity="0.5">
<path d="M265.47 179.92C265.377 188.72 265.377 197.657 265.47 206.73C265.65 223.863 266.16 240.51 267 256.67C267 256.67 273.37 282.57 250.68 286.96C238 289.41 233.01 269.06 220.43 267.83C215.78 267.38 208.51 269.12 198.53 281.39C206.974 262.807 209.639 242.116 206.18 222L265.47 179.92Z" fill="#F6CBC5"/>
</g>
<path d="M153.44 278.37C153.44 278.37 133.14 299.29 125.38 317.22C117.62 335.15 94.93 402.7 75.82 439.76L121.2 432.59L176.73 342.33L153.44 278.37Z" fill="#FFE4C9"/>
<path d="M266.29 255.66C275.623 256.859 284.852 258.758 293.9 261.34C299.52 262.94 336.24 273.4 351.61 289.19C375.08 313.29 349.03 350.06 343.96 430.87C338.78 513.58 361.55 547.13 338.23 566.8C330.56 573.26 322.87 574.04 244.52 566.8C161.89 559.16 152.76 556.66 145.07 547.65C126.13 525.47 148.07 501.57 148.89 434.7C149.89 350.1 115.64 312.05 141.25 283.45C151.25 272.25 172.6 260.1 194.79 256.64C202.06 255.51 209.34 254.86 223.9 255.06L266.29 255.66Z" fill="#5FBBA4"/>
<path d="M128.17 405.69C150.93 405 210 397.32 237 383L246 418.46C246 418.46 200.62 435.2 167.58 447.55C134.54 459.9 109.07 465.88 88.37 458.31C67.67 450.74 72.44 407.28 128.17 405.69Z" fill="#F6CBC5"/>
<path d="M221.21 389.55C221.21 389.55 234.05 380.29 236.14 377.3C237.86 374.83 238.56 373.86 240.02 372.81C243.76 370.14 251.23 369.56 267.6 378.99C262.38 379.61 255.83 380.18 255.55 378.99C255.42 378.47 256.55 377.79 257.05 377.48C263.12 373.82 285.11 375.9 289.76 376.37C290.934 375.499 292.391 375.098 293.845 375.246C295.299 375.394 296.646 376.08 297.62 377.169C298.595 378.259 299.127 379.674 299.112 381.135C299.097 382.597 298.536 384 297.54 385.07L287.49 390.07L287.78 397.94L278.63 421.65L221.51 426.93L221.21 389.55Z" fill="#F6CBC5"/>
<path d="M298.07 262.391C288.937 258.435 279.269 255.854 269.38 254.731C255.25 253.171 245.9 255.351 223.48 254.731C221.82 254.731 218.48 254.581 213.92 254.731C207.508 254.943 201.117 255.581 194.79 256.641C196.37 261.171 203.37 279.731 222.69 289.331C230.494 293.151 239.092 295.07 247.78 294.931C256.682 294.723 265.41 292.424 273.26 288.221C283.99 282.367 292.653 273.348 298.07 262.391Z" fill="#F0B5AD"/>
<path d="M220.17 240.101H217.67C207.879 237.856 199.14 232.356 192.88 224.501C181.68 210.651 181.38 194.501 181.41 190.591L175.53 170.071C175.53 152.141 188.65 137.601 204.83 137.601H233C240.665 138.754 247.848 142.051 253.72 147.111C259.957 152.542 264.689 159.489 267.46 167.281C268.087 175.754 268.723 184.231 269.37 192.711C268.14 198.091 263.82 213.991 249.96 226.431C241.673 233.944 231.27 238.717 220.17 240.101V240.101Z" fill="#F6CBC5"/>
<path d="M162.28 300.68C164.98 350.76 149.54 365.82 146.98 409.81C146.81 412.74 146.57 418.02 143.16 423.21C133.64 437.68 104.89 443.21 93.43 432.78C77.43 418.16 95.32 372.42 110.65 333.22C112.79 327.75 115.65 313.54 125.95 298.76C128.274 295.396 130.83 292.198 133.6 289.19C140.14 282 148.97 272.3 154.6 273.87C158.42 274.92 161.23 281.14 162.28 300.68Z" fill="#2D9678"/>
<path d="M126 298.761C103.9 325.321 67.37 377.821 68.62 442.351C69.07 465.351 74 472.851 78.18 476.821C111.02 507.941 217.7 437.941 225.44 432.821C219.073 414.314 212.7 395.807 206.32 377.301C180.031 379.193 154.52 387.059 131.73 400.301C120.69 406.781 110.424 414.497 101.13 423.301L126 298.761Z" fill="#2D9678"/>
<path d="M285.69 143.64C285.69 137.13 285.61 133.48 284.18 128.55C282.95 124.33 280.94 119.96 273.63 110.45C264 97.9999 259.25 91.7199 252.53 87.8199C247.34 84.8199 241.03 83.8199 228.42 81.8199C210.91 79.0299 199.61 77.3399 185.27 80.1199C178.847 81.3529 172.589 83.3261 166.62 85.9999C155.24 83.4599 144.3 87.5899 140.86 96.3399C138.14 103.24 140.79 111.21 146.96 117.17C146.77 117.37 146.59 117.58 146.41 117.78C140.77 120.89 136.94 125.85 136.41 131.71C135.57 141.59 144.49 150.54 156.8 152.79L175.64 169.3C190.425 165.815 204.634 160.224 217.83 152.7C224.161 149.101 230.232 145.065 236 140.62L248 145.15C256.88 153.197 263.175 163.696 266.09 175.32C266.03 176.21 265.42 187.84 269.09 188.9C271.92 189.71 275.87 183.9 277.35 181.67C285.64 169.42 285.74 155.3 285.69 143.64Z" fill="#1B1B35"/>
<path d="M253.18 90.0003C253.18 90.0003 262.29 81.8003 258.5 76.8203C254.71 71.8403 250.67 77.5703 252.56 80.1203C254.94 83.2603 253.18 90.0003 253.18 90.0003Z" fill="#1B1B35"/>
<path d="M253.29 89.7804C253.29 89.7804 261.59 83.9804 264.88 87.9704C268.17 91.9604 262.8 94.1404 261.11 92.1304C259 89.6204 253.29 89.7804 253.29 89.7804Z" fill="#1B1B35"/>
</g>
<defs>
<linearGradient id="paint0_linear" x1="404.47" y1="-27.77" x2="107.13" y2="506.9" gradientUnits="userSpaceOnUse">
<stop stop-color="#29ABE2"/>
<stop offset="1" stop-color="#3FA9F5"/>
</linearGradient>
<linearGradient id="paint1_linear" x1="404.47" y1="-27.77" x2="107.13" y2="506.9" gradientUnits="userSpaceOnUse">
<stop stop-color="#29ABE2"/>
<stop offset="1" stop-color="#3FA9F5"/>
</linearGradient>
</defs>
</svg>
