<?xml version="1.0" encoding="utf-8"?>
<!-- Generator: Adobe Illustrator 17.1.0, SVG Export Plug-In . SVG Version: 6.00 Build 0)  -->
<!DOCTYPE svg PUBLIC "-//W3C//DTD SVG 1.1//EN" "http://www.w3.org/Graphics/SVG/1.1/DTD/svg11.dtd">
<svg version="1.1" id="Layer_1" xmlns="http://www.w3.org/2000/svg" xmlns:xlink="http://www.w3.org/1999/xlink" x="0px" y="0px"
	 viewBox="0 0 1068.1 141.7" enable-background="new 0 0 1068.1 141.7" xml:space="preserve">
<g>
	<g>
		<path fill="#252525" d="M188.6,109.6h-12.8c-1.8,0-3.3-1.5-3.3-3.3V3.2c0-1.2,1-2.2,2.2-2.2h15.1c1.2,0,2.2,1,2.2,2.2v103.1
			C191.9,108.1,190.4,109.6,188.6,109.6z"/>
		<path fill="#252525" d="M293.3,4.3v9.1c0,1.8,1.5,3.3,3.3,3.3h75.2l-84.5,76.1c-0.7,0.6-1,1.5-1,2.4v11.5c0,1.6,1.3,2.9,2.9,2.9
			h106.1c2,0,3.6-1.6,3.6-3.6v-8.5c0-2-1.6-3.6-3.6-3.6h-82l84.5-76.1c0.7-0.7,1.1-1.6,1.1-2.6l0-12.5c0-1-0.8-1.7-1.7-1.7H296.6
			C294.8,1,293.3,2.5,293.3,4.3z"/>
		<g>
			<path fill="#252525" d="M524.3,4.3v99c0,1.8,1.5,3.3,3.3,3.3h12.8c1.8,0,3.3-1.5,3.3-3.3v-99c0-1.8-1.5-3.3-3.3-3.3h-12.8
				C525.7,1,524.3,2.5,524.3,4.3z"/>
			<path fill="#252525" d="M479,96.7c-34.6,0-38.7-19-39-23.6V4.3c0-1.8-1.5-3.3-3.3-3.3h-12.8c-1.8,0-3.3,1.5-3.3,3.3v70.2
				c0,6.1,1.6,12.1,4.8,17.2c7,11.2,19.5,18.3,51.3,18.3c40.4,0,47.7-15.4,47.7-15.4V59.2C524.3,95.3,497.6,96.7,479,96.7z"/>
		</g>
		<path fill="#252525" d="M191.9,17.9c0,0,7.5-16.9,38.6-16.9s46.8,14,46.8,26v12.2c0,1.4-1.2,2.6-2.6,2.6h-9.9
			c-1.3,0-2.5-1-2.6-2.4c-0.3-5.8-3.9-20.4-30.6-20.4c-29.4,0-39.3,14.6-40.9,32.7L191.9,17.9z"/>
		<path fill="#252525" d="M112.3,1H70.5c-24,0-43.4,19.4-43.4,43.4v21.8c0,24,19.4,43.4,43.4,43.4h41.8c24,0,43.4-19.4,43.4-43.4
			V44.4C155.7,20.4,136.3,1,112.3,1z M136.1,69.5c0,13-10.5,23.5-23.5,23.5H70.1c-13,0-23.5-10.5-23.5-23.5V41.1
			c0-13,10.5-23.5,23.5-23.5h42.5c13,0,23.5,10.5,23.5,23.5V69.5z"/>
		<g>
			<line fill="#252525" x1="1" y1="1" x2="1" y2="109.6"/>
			<path fill="#252525" d="M1,110.6c-0.6,0-1-0.4-1-1V1c0-0.6,0.4-1,1-1s1,0.4,1,1v108.6C2,110.2,1.6,110.6,1,110.6z"/>
		</g>
	</g>
	<g>
		<path fill="#252525" d="M647.2,63.8L672.1,1h16.6l-38.3,90.2c-2.6,5.8-5,9.8-7.2,12.2s-4.8,4.2-7.8,5.5c-3,1.3-6.8,1.9-11.3,1.9
			c-3.9,0-6.4-0.2-7.5-0.7l0.4-11.3l6.8,0.3c5.2,0,9.1-2.5,11.6-7.5l1.9-3.9l2.8-6.6L603.2,1h16L647.2,63.8z"/>
		<path fill="#252525" d="M730.8,99.5c4.9,0,9.2-1.5,12.9-4.5c3.7-3,5.7-6.7,6.1-11.2h13c-0.2,4.6-1.8,9-4.8,13.2
			c-2.9,4.2-6.8,7.5-11.7,10c-4.9,2.5-10.1,3.7-15.5,3.7c-11,0-19.7-3.7-26.1-11c-6.5-7.3-9.7-17.3-9.7-30v-2.3
			c0-7.8,1.4-14.8,4.3-20.9c2.9-6.1,7-10.8,12.4-14.2c5.4-3.4,11.7-5.1,19.1-5.1c9,0,16.5,2.7,22.5,8.1c6,5.4,9.2,12.4,9.6,21h-13
			c-0.4-5.2-2.4-9.5-5.9-12.8c-3.5-3.3-7.9-5-13.1-5c-7,0-12.4,2.5-16.2,7.5c-3.8,5-5.8,12.3-5.8,21.8v2.6c0,9.3,1.9,16.4,5.7,21.4
			C718.3,97,723.7,99.5,730.8,99.5z"/>
		<path fill="#252525" d="M844.2,28.8v80.5h-13.8V40.2H803l-1.6,30.1c-0.9,13.8-3.2,23.7-7,29.7c-3.7,5.9-9.7,9-17.8,9.3h-5.5V97.1
			l3.9-0.3c4.5-0.5,7.7-3.1,9.6-7.7c1.9-4.7,3.2-13.3,3.7-25.9l1.5-34.4H844.2z"/>
		<path fill="#252525" d="M892.6,89.1l18.7-60.3h14.7l-32.3,92.9c-5,13.4-13,20.1-23.9,20.1l-2.6-0.2l-5.1-1v-11.2l3.7,0.3
			c4.7,0,8.3-0.9,10.9-2.8c2.6-1.9,4.7-5.3,6.4-10.3l3-8.2l-28.7-79.6h15L892.6,89.1z"/>
		<path fill="#252525" d="M990.3,40.2h-37.1v69.1h-13.8V28.8h50.9V40.2z"/>
		<path fill="#252525" d="M1054.3,28.8h13.8v80.5h-13.8V50.6l-37.1,58.7h-13.8V28.8h13.8v58.7L1054.3,28.8z"/>
	</g>
</g>
</svg>
