<?xml version="1.0" encoding="utf-8"?>
<!-- Generator: Adobe Illustrator 17.1.0, SVG Export Plug-In . SVG Version: 6.00 Build 0)  -->
<!DOCTYPE svg PUBLIC "-//W3C//DTD SVG 1.1//EN" "http://www.w3.org/Graphics/SVG/1.1/DTD/svg11.dtd">
<svg version="1.1" id="Layer_1" xmlns="http://www.w3.org/2000/svg" xmlns:xlink="http://www.w3.org/1999/xlink" x="0px" y="0px"
	 viewBox="0 0 543.7 110.5" enable-background="new 0 0 543.7 110.5" xml:space="preserve">
<g>
	<path fill="#FFFFFF" d="M188.6,109.7h-12.8c-1.8,0-3.3-1.5-3.3-3.3V3.2c0-1.2,1-2.2,2.2-2.2h15.1c1.2,0,2.2,1,2.2,2.2v103.1
		C192,108.2,190.5,109.7,188.6,109.7z"/>
	<path fill="#FFFFFF" d="M293.3,4.4v9.1c0,1.8,1.5,3.3,3.3,3.3h75.2l-84.5,76.1c-0.7,0.6-1,1.5-1,2.4v11.5c0,1.6,1.3,2.9,2.9,2.9
		h106.1c2,0,3.6-1.6,3.6-3.6v-8.5c0-2-1.6-3.6-3.6-3.6h-82l84.5-76.1c0.7-0.7,1.1-1.6,1.1-2.6l0-12.5c0-1-0.8-1.7-1.7-1.7H296.6
		C294.8,1,293.3,2.5,293.3,4.4z"/>
	<g>
		<path fill="#FFFFFF" d="M524.3,4.4v99c0,1.8,1.5,3.3,3.3,3.3h12.8c1.8,0,3.3-1.5,3.3-3.3v-99c0-1.8-1.5-3.3-3.3-3.3h-12.8
			C525.8,1,524.3,2.5,524.3,4.4z"/>
		<path fill="#FFFFFF" d="M479,96.7c-34.6,0-38.7-19-39-23.6V4.4c0-1.8-1.5-3.3-3.3-3.3h-12.8c-1.8,0-3.3,1.5-3.3,3.3v70.2
			c0,6.1,1.6,12.1,4.8,17.2c7,11.2,19.5,18.3,51.3,18.3c40.4,0,47.7-15.4,47.7-15.4V59.2C524.3,95.3,497.6,96.7,479,96.7z"/>
	</g>
	<path fill="#FFFFFF" d="M192,17.9c0,0,7.5-16.9,38.6-16.9s46.8,14,46.8,26v12.2c0,1.4-1.2,2.6-2.6,2.6h-9.9c-1.3,0-2.5-1-2.6-2.4
		c-0.3-5.8-3.9-20.4-30.6-20.4c-29.4,0-39.3,14.6-40.9,32.7L192,17.9z"/>
	<path fill="#FFFFFF" d="M112.3,1H70.5c-24,0-43.4,19.4-43.4,43.4v21.8c0,24,19.4,43.4,43.4,43.4h41.8c24,0,43.4-19.4,43.4-43.4
		V44.5C155.7,20.5,136.3,1,112.3,1z M136.2,69.5c0,13-10.5,23.5-23.5,23.5H70.2c-13,0-23.5-10.5-23.5-23.5V41.2
		c0-13,10.5-23.5,23.5-23.5h42.5c13,0,23.5,10.5,23.5,23.5V69.5z"/>
	<g>
		<line fill="#FFFFFF" x1="1" y1="1" x2="1" y2="109.7"/>
		<path fill="#FFFFFF" d="M1,110.7c-0.6,0-1-0.4-1-1V1c0-0.6,0.4-1,1-1s1,0.4,1,1v108.6C2,110.2,1.6,110.7,1,110.7z"/>
	</g>
</g>
</svg>
