<svg xmlns="http://www.w3.org/2000/svg" viewBox="0 0 166.2 44.15"><defs><style>.e5e34cd1-a6f9-4848-83ae-69d74aa0b8ab{fill:#525050;fill-rule:evenodd;}</style></defs><title>orzu</title><g id="bd0a6a25-8d61-4181-9f08-7d496099bafa" data-name="Слой 2"><g id="ff152355-2762-40da-ae80-1d0b3f912efb" data-name="1"><path class="e5e34cd1-a6f9-4848-83ae-69d74aa0b8ab" d="M21.82,6.91a14.93,14.93,0,0,1,10.54,4.33h0l4.79-4.81A21.73,21.73,0,1,0,42,13.59L36.56,19h0a14.83,14.83,0,0,1,.29,2.92,15,15,0,1,1-15-15ZM55.44,0H52.28A2.27,2.27,0,0,0,50,2.27V41.49a2.27,2.27,0,0,0,2.27,2.26h4.33a2.27,2.27,0,0,0,2.26-2.26V25.05H62a10.4,10.4,0,0,1,3.9.63A8.32,8.32,0,0,1,69,28,32.65,32.65,0,0,1,72.36,33L73,34a2.2,2.2,0,0,0,.25.54l1.47,2.31c.73,1.21,1.32,2.14,1.76,2.79l.07.1,2.13,3.36a2.28,2.28,0,0,0,3.13.7l3.66-2.32a2.28,2.28,0,0,0,.7-3.13l-2.5-3.94a7.72,7.72,0,0,0-.81-1.5,36.26,36.26,0,0,0-2.12-3.11h0a1.83,1.83,0,0,0-.24-.31c-.47-.61-1-1.2-1.46-1.78A16.22,16.22,0,0,0,74.51,24q5.61-1.23,8.37-4.15A11,11,0,0,0,85.64,12a12.43,12.43,0,0,0-.82-4.53,10.9,10.9,0,0,0-2.4-3.75,11.27,11.27,0,0,0-3.64-2.48A13.15,13.15,0,0,0,75,.25,43.88,43.88,0,0,0,69.85,0H55.44ZM67.05,6.66c3,0,5.08.21,6.11.65a5.53,5.53,0,0,1,2.57,2.08,5.66,5.66,0,0,1,.93,3.22,5.41,5.41,0,0,1-1.15,3.65,6.33,6.33,0,0,1-3.32,1.89,22.26,22.26,0,0,1-5.38.55H58.87v-12Zm60.44,35.39V38.8a1.72,1.72,0,0,0-1.71-1.71H100.25l21-25a43,43,0,0,0,3.25-4.16,6.42,6.42,0,0,0,.8-3.43c0-3-1.61-4.51-4.83-4.51H90.88a1.71,1.71,0,0,0-1.71,1.7V5a1.71,1.71,0,0,0,1.71,1.7h24L92.42,33.54,91.17,35c-.48.56-.84,1-1.12,1.39a5.4,5.4,0,0,0-.64,1.18A4.08,4.08,0,0,0,89.17,39a4.4,4.4,0,0,0,1.47,3.47A6.35,6.35,0,0,0,95,43.75h30.79a1.71,1.71,0,0,0,1.71-1.7ZM166.2,9.15V2.27A2.27,2.27,0,0,0,163.93,0h-4.32a2.27,2.27,0,0,0-2.27,2.27V25.59c0,3.74-.71,6.53-2.15,8.38s-3.88,2.76-7.34,2.76A10.66,10.66,0,0,1,142,35.37a7.08,7.08,0,0,1-2.9-3.82,19.48,19.48,0,0,1-.83-6.13V2.27A2.27,2.27,0,0,0,136,0h-4.33a2.27,2.27,0,0,0-2.27,2.27V24.93a30,30,0,0,0,1.07,8.52,13.76,13.76,0,0,0,3.38,5.84,13.85,13.85,0,0,0,5.93,3.37,30.49,30.49,0,0,0,8.69,1.09,24.42,24.42,0,0,0,7.39-1,14.9,14.9,0,0,0,5.55-3.22,13.17,13.17,0,0,0,3.78-6,31.39,31.39,0,0,0,1-8.57V9.15ZM39.66,6.24a1.23,1.23,0,0,1,1.83,0l1.84,1.83a1.31,1.31,0,0,1,0,1.84L41.24,12l-5.16,5.18L24.44,28.85l-1.83,1.84a1.37,1.37,0,0,1-1.84,0l-1.83-1.84-8.28-8.31c-.45-.44-.59-1,0-1.83l1.84-1.83a1.89,1.89,0,0,1,1.83,0l6.45,6.49.91.91.92-.92L33.47,12.45l4.81-4.83Z"/></g></g></svg>