<?xml version="1.0" encoding="utf-8"?>
<!-- Generator: Adobe Illustrator 17.1.0, SVG Export Plug-In . SVG Version: 6.00 Build 0)  -->
<!DOCTYPE svg PUBLIC "-//W3C//DTD SVG 1.1//EN" "http://www.w3.org/Graphics/SVG/1.1/DTD/svg11.dtd">
<svg version="1.1" id="Layer_1" xmlns="http://www.w3.org/2000/svg" xmlns:xlink="http://www.w3.org/1999/xlink" x="0px" y="0px"
	 viewBox="0 0 506.1 451.9" enable-background="new 0 0 506.1 451.9" xml:space="preserve">
<g>
	<circle fill="#FFFFFF" stroke="#1E88E5" stroke-width="6.079" stroke-miterlimit="10" cx="266.5" cy="225.9" r="222.9"/>
	
		<line fill="#FFFFFF" stroke="#1E88E5" stroke-width="6.079" stroke-linecap="round" stroke-miterlimit="10" x1="43.6" y1="362.7" x2="470.1" y2="362.7"/>
	
		<line fill="#FFFFFF" stroke="#1E88E5" stroke-width="6.079" stroke-linecap="round" stroke-miterlimit="10" x1="489.4" y1="362.7" x2="503" y2="362.7"/>
	
		<line fill="#FFFFFF" stroke="#1E88E5" stroke-width="6.079" stroke-linecap="round" stroke-miterlimit="10" x1="3" y1="362.7" x2="26.8" y2="362.7"/>
	<path fill="#90CAF9" d="M439.3,361.9c-40.1,51.3-102.6,84.3-172.7,84.3c-70.3,0-132.9-33.1-173-84.6L439.3,361.9z"/>
	<g>
		<path fill="#BBDEFB" stroke="#1E88E5" stroke-width="6.079" stroke-miterlimit="10" d="M165.7,237.1h-93v118.5
			c0,3.9,3.2,7.1,7.1,7.1h85.9V237.1z"/>
		<circle fill="#2196F3" cx="138.2" cy="295.2" r="31.9"/>
		<path fill="#90CAF9" stroke="#1E88E5" stroke-width="6.079" stroke-miterlimit="10" d="M158.1,217.8H80.3c-4.2,0-7.6,3.4-7.6,7.6
			v11.7h93v-11.7C165.7,221.2,162.3,217.8,158.1,217.8z"/>
		<circle fill="#FFFFFF" stroke="#1E88E5" stroke-width="6.079" stroke-miterlimit="10" cx="94" cy="205.5" r="12.3"/>
	</g>
	<g>
		<path fill="#90CAF9" stroke="#1E88E5" stroke-width="6.079" stroke-miterlimit="10" d="M385.3,291.6h-7.6c-3.8,0-6.9-2.8-6.9-6.2
			v-49.8c0-3.4,3.1-6.2,6.9-6.2h12.7c4.1,0,7.2,3.2,6.9,6.8l-5.1,49.8C391.8,289.2,388.9,291.6,385.3,291.6z"/>
		<path fill="#90CAF9" stroke="#1E88E5" stroke-width="6.079" stroke-miterlimit="10" d="M431.2,293.1l-7.5-0.9
			c-3.8-0.4-6.4-3.6-6-7l7.1-49.4c0.5-3.4,3.9-5.8,7.7-5.4l12.6,1.5c4,0.5,6.7,4,5.8,7.5l-12.1,48.8
			C438,291.5,434.7,293.5,431.2,293.1z"/>
		<path fill="#90CAF9" stroke="#1E88E5" stroke-width="6.079" stroke-miterlimit="10" d="M411.4,291.6h-12.2c-4.1,0-7.2-3.2-6.9-6.8
			l6.6-65c0.3-3.2,3.3-5.7,6.9-5.7H418c4.1,0,7.2,3.2,6.9,6.8l-6.6,65C417.9,289.2,414.9,291.6,411.4,291.6z"/>
		<path fill="#BBDEFB" stroke="#1E88E5" stroke-width="6.079" stroke-miterlimit="10" d="M370.8,356.1v-65.7c0-3.7,3.3-6.7,7.4-6.7
			h32.5c2,0,3.8-0.7,5.2-2l23.7-21.4c1.4-1.2,3.3-2,5.2-2h13.4c4.8,0,8.3,4,7.2,8.2l-16.2,91c-0.8,3-3.8,5.1-7.2,5.1h-63.8
			C374.1,362.7,370.8,359.7,370.8,356.1z"/>
	</g>
	<circle fill="#1E88E5" cx="85.1" cy="151.9" r="4"/>
	<circle fill="#1E88E5" cx="444.3" cy="162.9" r="4"/>
	<circle fill="#1E88E5" cx="401.9" cy="190.5" r="4"/>
	<circle fill="#1E88E5" cx="136.5" cy="178.3" r="5.9"/>
	<circle fill="#1E88E5" cx="132.5" cy="112.7" r="8.6"/>
	<rect x="375.7" y="286.9" fill="#90CAF9" width="25.6" height="72.9"/>
	<rect x="130.7" y="239.7" fill="#90CAF9" width="25.6" height="120.1"/>
	<circle fill="#1E88E5" cx="391.7" cy="141.3" r="8.6"/>
	<g>
		<path fill="#FFFFFF" stroke="#1E88E5" stroke-width="6.079" stroke-miterlimit="10" d="M375.7,362.7H157.3V59.2
			c0-10.9,8.8-19.7,19.7-19.7H356c10.9,0,19.7,8.8,19.7,19.7V362.7z"/>
		<path fill="#90CAF9" stroke="#1E88E5" stroke-width="6.079" stroke-miterlimit="10" d="M375.7,87.6H157.3V59.2
			c0-10.9,8.8-19.7,19.7-19.7H356c10.9,0,19.7,8.8,19.7,19.7V87.6z"/>
		
			<line fill="none" stroke="#BBDEFB" stroke-width="6.079" stroke-linecap="round" stroke-miterlimit="10" x1="237.8" y1="113.8" x2="347.3" y2="113.8"/>
		
			<line fill="none" stroke="#BBDEFB" stroke-width="6.079" stroke-linecap="round" stroke-miterlimit="10" x1="237.8" y1="126.9" x2="312.9" y2="126.9"/>
		
			<line fill="none" stroke="#BBDEFB" stroke-width="6.079" stroke-linecap="round" stroke-miterlimit="10" x1="237.8" y1="164" x2="347.3" y2="164"/>
		
			<line fill="none" stroke="#BBDEFB" stroke-width="6.079" stroke-linecap="round" stroke-miterlimit="10" x1="237.8" y1="177.1" x2="347.3" y2="177.1"/>
		
			<line fill="none" stroke="#BBDEFB" stroke-width="6.079" stroke-linecap="round" stroke-miterlimit="10" x1="237.8" y1="215.3" x2="347.3" y2="215.3"/>
		
			<line fill="none" stroke="#BBDEFB" stroke-width="6.079" stroke-linecap="round" stroke-miterlimit="10" x1="237.8" y1="228.5" x2="312.9" y2="228.5"/>
		
			<line fill="none" stroke="#BBDEFB" stroke-width="6.079" stroke-linecap="round" stroke-miterlimit="10" x1="237.8" y1="241.4" x2="279.3" y2="241.4"/>
		
			<line fill="none" stroke="#BBDEFB" stroke-width="6.079" stroke-linecap="round" stroke-miterlimit="10" x1="237.8" y1="264.4" x2="347.3" y2="264.4"/>
		
			<line fill="none" stroke="#BBDEFB" stroke-width="6.079" stroke-linecap="round" stroke-miterlimit="10" x1="237.8" y1="277.6" x2="312.9" y2="277.6"/>
		
			<line fill="none" stroke="#BBDEFB" stroke-width="6.079" stroke-linecap="round" stroke-miterlimit="10" x1="237.8" y1="290.9" x2="332.1" y2="290.9"/>
		
			<line fill="none" stroke="#BBDEFB" stroke-width="6.079" stroke-linecap="round" stroke-miterlimit="10" x1="237.8" y1="314.6" x2="312.9" y2="314.6"/>
		
			<line fill="none" stroke="#BBDEFB" stroke-width="6.079" stroke-linecap="round" stroke-miterlimit="10" x1="237.8" y1="327.8" x2="347.3" y2="327.8"/>
		
			<line fill="#FFFFFF" stroke="#2196F3" stroke-width="6.079" stroke-linecap="round" stroke-miterlimit="10" x1="237.8" y1="63.5" x2="295.1" y2="63.5"/>
		
			<line fill="#FFFFFF" stroke="#2196F3" stroke-width="6.079" stroke-linecap="round" stroke-miterlimit="10" x1="307.4" y1="63.5" x2="312.9" y2="63.5"/>
		<path fill="#BBDEFB" d="M204.7,311.6h-26.6c-1.6,0-2.9,1.3-2.9,2.9v26.6c0,1.6,1.3,2.9,2.9,2.9h26.6c1.6,0,2.9-1.3,2.9-2.9v-26.6
			C207.6,312.9,206.3,311.6,204.7,311.6z"/>
		<path fill="#BBDEFB" d="M204.7,261.4h-26.6c-1.6,0-2.9,1.3-2.9,2.9v26.6c0,1.6,1.3,2.9,2.9,2.9h26.6c1.6,0,2.9-1.3,2.9-2.9v-26.6
			C207.6,262.7,206.3,261.4,204.7,261.4z"/>
		<path fill="#BBDEFB" d="M204.7,211.2h-26.6c-1.6,0-2.9,1.3-2.9,2.9v26.6c0,1.6,1.3,2.9,2.9,2.9h26.6c1.6,0,2.9-1.3,2.9-2.9v-26.6
			C207.6,212.5,206.3,211.2,204.7,211.2z"/>
		<path fill="#BBDEFB" d="M204.7,161h-26.6c-1.6,0-2.9,1.3-2.9,2.9v26.6c0,1.6,1.3,2.9,2.9,2.9h26.6c1.6,0,2.9-1.3,2.9-2.9v-26.6
			C207.6,162.3,206.3,161,204.7,161z"/>
		<path fill="#BBDEFB" d="M204.7,110.8h-26.6c-1.6,0-2.9,1.3-2.9,2.9v26.6c0,1.6,1.3,2.9,2.9,2.9h26.6c1.6,0,2.9-1.3,2.9-2.9v-26.6
			C207.6,112.1,206.3,110.8,204.7,110.8z"/>
		<polyline fill="none" stroke="#2196F3" stroke-width="6.079" stroke-linecap="round" stroke-miterlimit="10" points="176.1,121.8 
			190.8,137.4 207.6,110.8 		"/>
		<polyline fill="none" stroke="#2196F3" stroke-width="6.079" stroke-linecap="round" stroke-miterlimit="10" points="176.1,170.7 
			190.8,186.3 207.6,159.7 		"/>
		<polyline fill="none" stroke="#2196F3" stroke-width="6.079" stroke-linecap="round" stroke-miterlimit="10" points="176.1,222.2 
			190.8,237.8 207.6,211.2 		"/>
	</g>
</g>
</svg>
