<?xml version="1.0" encoding="utf-8"?>
<!-- Generator: Adobe Illustrator 17.1.0, SVG Export Plug-In . SVG Version: 6.00 Build 0)  -->
<!DOCTYPE svg PUBLIC "-//W3C//DTD SVG 1.1//EN" "http://www.w3.org/Graphics/SVG/1.1/DTD/svg11.dtd">
<svg version="1.1" id="Layer_1" xmlns="http://www.w3.org/2000/svg" xmlns:xlink="http://www.w3.org/1999/xlink" x="0px" y="0px"
	 viewBox="0 0 505.8 432.2" enable-background="new 0 0 505.8 432.2" xml:space="preserve">
<g>
	<circle fill="#FFFFFF" stroke="#1E88E5" stroke-width="5.814" stroke-miterlimit="10" cx="254.8" cy="216.1" r="213.2"/>
	<path fill="#90CAF9" d="M420.2,346.7c-38.4,49-98.1,80.6-165.2,80.6c-67.3,0-127.1-31.7-165.5-81L420.2,346.7z"/>
	<g>
		<path fill="#FFFFFF" stroke="#1E88E5" stroke-width="5.814" stroke-miterlimit="10" d="M385.7,346.9H124V95
			c0-9.6,7.8-17.4,17.4-17.4h226.7c9.6,0,17.4,7.8,17.4,17.4V346.9z"/>
		<path fill="#90CAF9" stroke="#1E88E5" stroke-width="5.814" stroke-miterlimit="10" d="M385.7,102.7H124V95
			c0-9.6,7.8-17.4,17.4-17.4h226.7c9.6,0,17.4,7.8,17.4,17.4V102.7z"/>
		
			<line fill="none" stroke="#90CAF9" stroke-width="5.814" stroke-linecap="round" stroke-miterlimit="10" x1="149.2" y1="146.3" x2="360.5" y2="146.3"/>
		
			<line fill="none" stroke="#90CAF9" stroke-width="5.814" stroke-linecap="round" stroke-miterlimit="10" x1="149.2" y1="180.2" x2="360.5" y2="180.2"/>
		
			<line fill="none" stroke="#90CAF9" stroke-width="5.814" stroke-linecap="round" stroke-miterlimit="10" x1="149.2" y1="214.1" x2="360.5" y2="214.1"/>
		
			<line fill="none" stroke="#90CAF9" stroke-width="5.814" stroke-linecap="round" stroke-miterlimit="10" x1="149.2" y1="248.1" x2="360.5" y2="248.1"/>
		
			<line fill="none" stroke="#90CAF9" stroke-width="5.814" stroke-linecap="round" stroke-miterlimit="10" x1="149.2" y1="282" x2="360.5" y2="282"/>
		
			<line fill="none" stroke="#90CAF9" stroke-width="5.814" stroke-linecap="round" stroke-miterlimit="10" x1="149.2" y1="315.9" x2="360.5" y2="315.9"/>
	</g>
	<g>
		<path fill="#FFFFFF" stroke="#1E88E5" stroke-width="5.814" stroke-miterlimit="10" d="M493.2,235.5H316.9c-5.4,0-9.7-4.3-9.7-9.7
			v-88.2c0-5.4,4.3-9.7,9.7-9.7h176.4c5.4,0,9.7,4.3,9.7,9.7v88.2C502.9,231.1,498.6,235.5,493.2,235.5z"/>
		<g>
			
				<line fill="#FFFFFF" stroke="#1E88E5" stroke-width="5.814" stroke-linecap="round" stroke-miterlimit="10" x1="329" y1="155" x2="481.1" y2="155"/>
			
				<line fill="#FFFFFF" stroke="#1E88E5" stroke-width="5.814" stroke-linecap="round" stroke-miterlimit="10" x1="329" y1="181.7" x2="481.1" y2="181.7"/>
			
				<line fill="#FFFFFF" stroke="#1E88E5" stroke-width="5.814" stroke-linecap="round" stroke-miterlimit="10" x1="329" y1="208.3" x2="481.1" y2="208.3"/>
		</g>
	</g>
	<g>
		<path fill="#90CAF9" stroke="#1E88E5" stroke-width="5.814" stroke-miterlimit="10" d="M225.8,254.4v-28.6c0-5.4-4.3-9.7-9.7-9.7
			H24.5c-5.4,0-9.7,4.3-9.7,9.7V314c0,5.4,4.3,9.7,9.7,9.7h191.6c5.4,0,9.7-4.3,9.7-9.7v-28.6l16-15L225.8,254.4z"/>
		<g>
			
				<line fill="#FFFFFF" stroke="#2196F3" stroke-width="5.814" stroke-linecap="round" stroke-miterlimit="10" x1="36.6" y1="243.2" x2="200.6" y2="243.2"/>
			
				<line fill="#FFFFFF" stroke="#2196F3" stroke-width="5.814" stroke-linecap="round" stroke-miterlimit="10" x1="36.6" y1="269.9" x2="168.6" y2="269.9"/>
			
				<line fill="#FFFFFF" stroke="#2196F3" stroke-width="5.814" stroke-linecap="round" stroke-miterlimit="10" x1="36.6" y1="296.5" x2="117.7" y2="296.5"/>
		</g>
	</g>
	<circle fill="#FFFFFF" stroke="#1E88E5" stroke-width="5.814" stroke-miterlimit="10" cx="261.5" cy="264.4" r="8.5"/>
	<circle fill="#FFFFFF" stroke="#1E88E5" stroke-width="5.814" stroke-miterlimit="10" cx="295.9" cy="246" r="8.5"/>
	
		<line fill="#FFFFFF" stroke="#1E88E5" stroke-width="5.814" stroke-linecap="round" stroke-miterlimit="10" x1="41.7" y1="346.9" x2="449.6" y2="346.9"/>
	
		<line fill="#FFFFFF" stroke="#1E88E5" stroke-width="5.814" stroke-linecap="round" stroke-miterlimit="10" x1="468" y1="346.9" x2="481.1" y2="346.9"/>
	
		<line fill="#FFFFFF" stroke="#1E88E5" stroke-width="5.814" stroke-linecap="round" stroke-miterlimit="10" x1="2.9" y1="346.9" x2="25.7" y2="346.9"/>
	
		<line fill="none" stroke="#BBDEFB" stroke-width="5.814" stroke-linecap="round" stroke-miterlimit="10" x1="200.6" y1="39.2" x2="287.4" y2="39.2"/>
	
		<line fill="none" stroke="#BBDEFB" stroke-width="5.814" stroke-linecap="round" stroke-miterlimit="10" x1="298.9" y1="39.2" x2="309.8" y2="39.2"/>
	
		<line fill="none" stroke="#BBDEFB" stroke-width="5.814" stroke-linecap="round" stroke-miterlimit="10" x1="161.3" y1="59.2" x2="248.1" y2="59.2"/>
	
		<line fill="none" stroke="#BBDEFB" stroke-width="5.814" stroke-linecap="round" stroke-miterlimit="10" x1="137.2" y1="59.2" x2="148.1" y2="59.2"/>
	<circle fill="#BBDEFB" cx="92.8" cy="162.7" r="5.6"/>
	<circle fill="#BBDEFB" cx="415.7" cy="261.2" r="5.6"/>
</g>
</svg>
