<?xml version="1.0" encoding="utf-8"?>
<!-- Generator: Adobe Illustrator 17.1.0, SVG Export Plug-In . SVG Version: 6.00 Build 0)  -->
<!DOCTYPE svg PUBLIC "-//W3C//DTD SVG 1.1//EN" "http://www.w3.org/Graphics/SVG/1.1/DTD/svg11.dtd">
<svg version="1.1" id="Layer_1" xmlns="http://www.w3.org/2000/svg" xmlns:xlink="http://www.w3.org/1999/xlink" x="0px" y="0px"
	 viewBox="0 0 505.7 423.8" enable-background="new 0 0 505.7 423.8" xml:space="preserve">
<g>
	<path fill="#FFFFFF" stroke="#1E88E5" stroke-width="5.702" stroke-miterlimit="10" d="M490,211.9c0,48.5-16.5,93.2-44.3,128.7
		c-38.3,48.9-97.9,80.4-164.8,80.4c-67.1,0-126.8-31.6-165.1-80.8c-27.6-35.4-44-79.9-44-128.3C71.9,96.5,165.5,2.9,280.9,2.9
		S490,96.5,490,211.9z"/>
	<g>
		<path fill="#BBDEFB" stroke="#1E88E5" stroke-width="5.702" stroke-miterlimit="10" d="M139.1,219c-1.9,1.2-3,3-1.7,4.9l57.3,95.1
			c1.2,1.7,3.5,2.2,5.2,1c0.1-0.1,0.2-0.1,0.2-0.2l22.4-14.7c1.9-1.3,2.4-3.9,1.1-5.8c0,0,0,0,0,0l-63.9-90.1
			c-1.2-1.9-3.3-1.6-5.2-0.4L139.1,219z"/>
		<path fill="#FFFFFF" stroke="#1E88E5" stroke-width="5.702" stroke-linejoin="round" stroke-miterlimit="10" d="M144.3,87.6
			c0,0-33.2-24.7-57.7-9.1c-8.7,5.7-37.8,25-37.8,25l3.4,12.8l-9.5,6.2l11.1,17l9.5-6.2l7.2,3.4l32.1-21l-0.2-9
			C102.6,106.7,112.8,81.6,144.3,87.6z"/>
		<path fill="#FFFFFF" stroke="#1E88E5" stroke-width="5.702" stroke-linejoin="round" stroke-miterlimit="10" d="M36.8,123.6
			l1.8-1.2c2.6-1.7,6.2-1,7.9,1.7l9.8,15c1.7,2.6,1,6.2-1.7,7.9l-1.8,1.2c-2.6,1.7-6.2,1-7.9-1.7l-9.8-15
			C33.5,128.9,34.2,125.4,36.8,123.6z"/>
		<circle fill="#1E88E5" cx="170.8" cy="259.9" r="2.1"/>
		<circle fill="#1E88E5" cx="159.5" cy="242.7" r="2.1"/>
		<circle fill="#1E88E5" cx="168.2" cy="237" r="2.1"/>
		<circle fill="#1E88E5" cx="165.2" cy="251.3" r="2.1"/>
		
			<ellipse transform="matrix(-0.5473 -0.8369 0.8369 -0.5473 65.1303 543.64)" fill="#1E88E5" cx="179.6" cy="254.2" rx="2.1" ry="2.2"/>
		<circle fill="#1E88E5" cx="173.8" cy="245.7" r="2.1"/>
		
			<rect x="107.8" y="116.1" transform="matrix(-0.8369 0.5473 -0.5473 -0.8369 309.3958 246.3656)" fill="#FFFFFF" stroke="#1E88E5" stroke-width="5.702" stroke-linejoin="round" stroke-miterlimit="10" width="20.4" height="106.4"/>
		
			<rect x="62.7" y="169.2" transform="matrix(0.5473 0.8369 -0.8369 0.5473 194.4642 -16.6704)" fill="#BBDEFB" width="99.9" height="4.5"/>
		
			<line fill="#FFFFFF" stroke="#1E88E5" stroke-width="5.702" stroke-linejoin="round" stroke-miterlimit="10" x1="89.7" y1="144.5" x2="106.7" y2="133.4"/>
	</g>
	<g>
		<polyline fill="none" stroke="#1E88E5" stroke-width="5.702" stroke-linejoin="round" stroke-miterlimit="10" points="82.6,213.2 
			94.8,193.6 126.8,213.5 84.8,281.1 124.6,305.8 		"/>
		<path fill="#BBDEFB" stroke="#1E88E5" stroke-width="5.702" stroke-miterlimit="10" d="M3.5,302.2l64.9-104.5
			c1.2-2,3.8-2.6,5.8-1.4l26.1,16.2c2,1.2,2.6,3.8,1.4,5.8L36.7,322.8c-1.2,2-3.8,2.6-5.8,1.4L4.8,308
			C2.9,306.8,2.3,304.2,3.5,302.2z"/>
		<path fill="#FFFFFF" stroke="#1E88E5" stroke-width="5.702" stroke-miterlimit="10" d="M111.3,303.4l5.2-8.3
			c1.2-2,3.8-2.6,5.8-1.4l45.1,28c2,1.2,2.6,3.8,1.4,5.8l-5.2,8.3c-1.2,2-3.8,2.6-5.8,1.4l-45.1-28
			C110.7,307.9,110.1,305.3,111.3,303.4z"/>
		<path fill="#BBDEFB" d="M112.2,304.6l2.5-4l0,0l49.9,31l0,0l-1.5,2.5c-1.2,1.9-3.7,2.5-5.6,1.3L113,307.7
			C111.9,307,111.6,305.6,112.2,304.6z"/>
		<circle fill="#BBDEFB" stroke="#1E88E5" stroke-width="5.702" stroke-miterlimit="10" cx="157.5" cy="326.4" r="3.9"/>
		<line fill="none" stroke="#FFFFFF" stroke-width="5.702" stroke-miterlimit="10" x1="39.9" y1="246" x2="48.7" y2="251.4"/>
		<line fill="none" stroke="#FFFFFF" stroke-width="5.702" stroke-miterlimit="10" x1="35.2" y1="253.6" x2="48.5" y2="261.9"/>
		<circle fill="#FFFFFF" stroke="#1E88E5" stroke-width="5.702" stroke-miterlimit="10" cx="15.7" cy="319.7" r="2.3"/>
	</g>
	<g>
		<path fill="#FFFFFF" stroke="#1E88E5" stroke-width="5.702" stroke-miterlimit="10" d="M409.2,340.2H152.7V93.1
			c0-9.4,7.7-17.1,17.1-17.1h222.4c9.4,0,17.1,7.7,17.1,17.1V340.2z"/>
		<path fill="#90CAF9" stroke="#1E88E5" stroke-width="5.702" stroke-miterlimit="10" d="M409.2,100.7H152.7v-7.6
			c0-9.4,7.7-17.1,17.1-17.1h222.4c9.4,0,17.1,7.7,17.1,17.1V100.7z"/>
		
			<line fill="#FFFFFF" stroke="#90CAF9" stroke-width="5.702" stroke-linecap="round" stroke-miterlimit="10" x1="177.4" y1="143.5" x2="384.5" y2="143.5"/>
		
			<line fill="#FFFFFF" stroke="#90CAF9" stroke-width="5.702" stroke-linecap="round" stroke-miterlimit="10" x1="177.4" y1="176.8" x2="384.5" y2="176.8"/>
		
			<line fill="#FFFFFF" stroke="#90CAF9" stroke-width="5.702" stroke-linecap="round" stroke-miterlimit="10" x1="177.4" y1="210" x2="384.5" y2="210"/>
		
			<line fill="#FFFFFF" stroke="#90CAF9" stroke-width="5.702" stroke-linecap="round" stroke-miterlimit="10" x1="177.4" y1="243.3" x2="384.5" y2="243.3"/>
		
			<line fill="#FFFFFF" stroke="#90CAF9" stroke-width="5.702" stroke-linecap="round" stroke-miterlimit="10" x1="177.4" y1="276.5" x2="384.5" y2="276.5"/>
		
			<line fill="#FFFFFF" stroke="#90CAF9" stroke-width="5.702" stroke-linecap="round" stroke-miterlimit="10" x1="177.4" y1="309.8" x2="384.5" y2="309.8"/>
	</g>
	
		<line fill="#FFFFFF" stroke="#1E88E5" stroke-width="5.702" stroke-linecap="round" stroke-miterlimit="10" x1="71.9" y1="340.2" x2="472" y2="340.2"/>
	
		<line fill="#FFFFFF" stroke="#1E88E5" stroke-width="5.702" stroke-linecap="round" stroke-miterlimit="10" x1="490" y1="340.2" x2="502.9" y2="340.2"/>
	
		<line fill="#FFFFFF" stroke="#1E88E5" stroke-width="5.702" stroke-linecap="round" stroke-miterlimit="10" x1="33.9" y1="340.2" x2="56.2" y2="340.2"/>
	<g>
		<path fill="#FFFFFF" stroke="#1E88E5" stroke-width="5.702" stroke-miterlimit="10" d="M303.6,200.8h161.3c2.2,0,4,1.8,4,4v131.7
			c0,2.2-1.8,4-4,4H303.6c-2.2,0-4-1.8-4-4V204.8C299.5,202.6,301.3,200.8,303.6,200.8z"/>
		<path fill="#BBDEFB" d="M301.5,243.8h14.8l0,0v94.1l0,0h-10.8c-2.2,0-4-1.9-4-4.2V243.8L301.5,243.8z"/>
		<path fill="#BBDEFB" stroke="#1E88E5" stroke-width="5.702" stroke-miterlimit="10" d="M466,200.8H302.3c-1.5,0-2.8,1.2-2.8,2.8
			v35.6c0,1.5,1.2,2.8,2.8,2.8H466c1.5,0,2.8-1.2,2.8-2.8v-35.6C468.8,202,467.6,200.8,466,200.8z M329,224.6
			c-3.6,0-6.5-2.9-6.5-6.5s2.9-6.5,6.5-6.5s6.5,2.9,6.5,6.5S332.6,224.6,329,224.6z M439.4,224.6c-3.6,0-6.5-2.9-6.5-6.5
			s2.9-6.5,6.5-6.5c3.6,0,6.5,2.9,6.5,6.5S443,224.6,439.4,224.6z"/>
		<line fill="none" x1="300.2" y1="243.8" x2="469.6" y2="243.8"/>
		
			<line fill="#FFFFFF" stroke="#1E88E5" stroke-width="5.702" stroke-linecap="round" stroke-linejoin="round" stroke-miterlimit="10" x1="328.4" y1="212.2" x2="328.4" y2="193.4"/>
		
			<line fill="#FFFFFF" stroke="#1E88E5" stroke-width="5.702" stroke-linecap="round" stroke-linejoin="round" stroke-miterlimit="10" x1="438.6" y1="212.2" x2="438.6" y2="193.4"/>
		<path fill="#90CAF9" d="M338.5,309.7h9.4c0.7,0,1.3,0.6,1.3,1.3v9.4c0,0.7-0.6,1.3-1.3,1.3h-9.4c-0.7,0-1.3-0.6-1.3-1.3V311
			C337.2,310.3,337.8,309.7,338.5,309.7z"/>
		<path fill="#90CAF9" d="M360,309.7h9.4c0.7,0,1.3,0.6,1.3,1.3v9.4c0,0.7-0.6,1.3-1.3,1.3H360c-0.7,0-1.3-0.6-1.3-1.3V311
			C358.7,310.3,359.3,309.7,360,309.7z"/>
		<path fill="#90CAF9" d="M381.5,309.7h9.4c0.7,0,1.3,0.6,1.3,1.3v9.4c0,0.7-0.6,1.3-1.3,1.3h-9.4c-0.7,0-1.3-0.6-1.3-1.3V311
			C380.2,310.3,380.8,309.7,381.5,309.7z"/>
		<path fill="#90CAF9" d="M403,309.7h9.4c0.7,0,1.3,0.6,1.3,1.3v9.4c0,0.7-0.6,1.3-1.3,1.3H403c-0.7,0-1.3-0.6-1.3-1.3V311
			C401.7,310.3,402.3,309.7,403,309.7z"/>
		<path fill="#90CAF9" d="M425.9,309.7h9.4c0.7,0,1.3,0.6,1.3,1.3v9.4c0,0.7-0.6,1.3-1.3,1.3h-9.4c-0.7,0-1.3-0.6-1.3-1.3V311
			C424.5,310.3,425.1,309.7,425.9,309.7z"/>
		<path fill="#90CAF9" d="M338.5,286.8h9.4c0.7,0,1.3,0.6,1.3,1.3v9.4c0,0.7-0.6,1.3-1.3,1.3h-9.4c-0.7,0-1.3-0.6-1.3-1.3v-9.4
			C337.2,287.4,337.8,286.8,338.5,286.8z"/>
		<path fill="#90CAF9" d="M360,286.8h9.4c0.7,0,1.3,0.6,1.3,1.3v9.4c0,0.7-0.6,1.3-1.3,1.3H360c-0.7,0-1.3-0.6-1.3-1.3v-9.4
			C358.7,287.4,359.3,286.8,360,286.8z"/>
		<path fill="#90CAF9" d="M360,262.6h9.4c0.7,0,1.3,0.6,1.3,1.3v9.4c0,0.7-0.6,1.3-1.3,1.3H360c-0.7,0-1.3-0.6-1.3-1.3V264
			C358.7,263.2,359.3,262.6,360,262.6z"/>
		<path fill="#90CAF9" d="M338.5,262.6h9.4c0.7,0,1.3,0.6,1.3,1.3v9.4c0,0.7-0.6,1.3-1.3,1.3h-9.4c-0.7,0-1.3-0.6-1.3-1.3V264
			C337.2,263.2,337.8,262.6,338.5,262.6z"/>
		<path fill="#90CAF9" d="M381.5,286.8h9.4c0.7,0,1.3,0.6,1.3,1.3v9.4c0,0.7-0.6,1.3-1.3,1.3h-9.4c-0.7,0-1.3-0.6-1.3-1.3v-9.4
			C380.2,287.4,380.8,286.8,381.5,286.8z"/>
		<path fill="#1E88E5" d="M403,286.8h9.4c0.7,0,1.3,0.6,1.3,1.3v9.4c0,0.7-0.6,1.3-1.3,1.3H403c-0.7,0-1.3-0.6-1.3-1.3v-9.4
			C401.7,287.4,402.3,286.8,403,286.8z"/>
		<path fill="#90CAF9" d="M425.9,286.8h9.4c0.7,0,1.3,0.6,1.3,1.3v9.4c0,0.7-0.6,1.3-1.3,1.3h-9.4c-0.7,0-1.3-0.6-1.3-1.3v-9.4
			C424.5,287.4,425.1,286.8,425.9,286.8z"/>
		<path fill="#90CAF9" d="M425.9,262.6h9.4c0.7,0,1.3,0.6,1.3,1.3v9.4c0,0.7-0.6,1.3-1.3,1.3h-9.4c-0.7,0-1.3-0.6-1.3-1.3V264
			C424.5,263.2,425.1,262.6,425.9,262.6z"/>
		<path fill="#90CAF9" d="M403,262.6h9.4c0.7,0,1.3,0.6,1.3,1.3v9.4c0,0.7-0.6,1.3-1.3,1.3H403c-0.7,0-1.3-0.6-1.3-1.3V264
			C401.7,263.2,402.3,262.6,403,262.6z"/>
		<path fill="#90CAF9" d="M381.5,262.6h9.4c0.7,0,1.3,0.6,1.3,1.3v9.4c0,0.7-0.6,1.3-1.3,1.3h-9.4c-0.7,0-1.3-0.6-1.3-1.3V264
			C380.2,263.2,380.8,262.6,381.5,262.6z"/>
	</g>
	<path fill="#90CAF9" stroke="#1E88E5" stroke-width="5.702" stroke-miterlimit="10" d="M445.7,340.6
		c-38.3,48.9-97.9,80.4-164.8,80.4c-67.1,0-126.8-31.6-165.1-80.8L445.7,340.6z"/>
</g>
</svg>
