<svg height="480pt" viewBox="0 0 480 480" width="480pt" xmlns="http://www.w3.org/2000/svg"><path d="m304 440h-128v-32h-147.503906c-4.929688 0-9.582032 2.265625-12.613282 6.152344-3.035156 3.882812-4.109374 8.945312-2.914062 13.726562l8 32c1.78125 7.125 8.183594 12.125 15.527344 12.121094h407.007812c7.34375.003906 13.746094-4.996094 15.527344-12.121094l8-32c1.195312-4.78125.121094-9.84375-2.914062-13.726562-3.03125-3.886719-7.683594-6.152344-12.613282-6.152344h-147.503906zm0 0" fill="#9bc9ff"/><path d="m434.816406 8h-389.632812c-20.535156 0-37.183594 16.648438-37.183594 37.183594v293.601562c-.019531 20.546875 16.636719 37.214844 37.183594 37.214844h389.601562c20.546875.019531 37.214844-16.636719 37.214844-37.183594v-293.632812c0-20.535156-16.648438-37.183594-37.183594-37.183594zm13.183594 72v259.3125c0 7.007812-5.679688 12.6875-12.6875 12.6875h-390.625c-7.007812 0-12.6875-5.679688-12.6875-12.6875v-294.625c0-7.007812 5.679688-12.6875 12.6875-12.6875h390.625c7.007812 0 12.6875 5.679688 12.6875 12.6875zm0 0" fill="#9bc9ff"/><path d="m416 352h19.3125c7.007812 0 12.6875-5.679688 12.6875-12.6875v-259.3125h-32zm0 0" fill="#9bc9ff"/><path d="m56 408h368v-32h-368zm0 0" fill="#9bc9ff"/><path d="m256 240h128v80h-128zm0 0" fill="#9bc9ff"/><path d="m64 112h128v144h-128zm0 0" fill="#9bc9ff"/><path d="m144 152c0 8.835938-7.164062 16-16 16s-16-7.164062-16-16 7.164062-16 16-16 16 7.164062 16 16zm0 0" fill="#9bc9ff"/><path d="m160 200c0-17.671875-14.328125-32-32-32s-32 14.328125-32 32v32h64zm0 0" fill="#9bc9ff"/><g fill="#57a4ff"><path d="m434.824219 384c24.9375-.027344 45.148437-20.238281 45.175781-45.175781v-293.648438c-.027344-24.9375-20.238281-45.1484372-45.175781-45.175781h-389.648438c-24.9375.0273438-45.1484372 20.238281-45.175781 45.175781v293.648438c.0273438 24.9375 20.238281 45.148437 45.175781 45.175781h2.824219v16h-19.503906c-7.390625 0-14.371094 3.402344-18.921875 9.230469-4.550781 5.824219-6.160157 13.421875-4.367188 20.59375l8 32c2.671875 10.683593 12.273438 18.179687 23.289063 18.175781h407.007812c11.015625.003906 20.617188-7.492188 23.289063-18.175781l8-32c1.792969-7.171875.183593-14.769531-4.367188-20.59375-4.550781-5.828125-11.53125-9.230469-18.921875-9.230469h-19.503906v-16zm-418.824219-45.175781v-293.648438c.023438-16.105469 13.070312-29.152343 29.175781-29.175781h389.648438c16.105469.023438 29.152343 13.070312 29.175781 29.175781v293.648438c-.023438 16.105469-13.070312 29.152343-29.175781 29.175781h-389.648438c-16.105469-.023438-29.152343-13.070312-29.175781-29.175781zm441.816406 80.253906c1.523438 1.941406 2.058594 4.476563 1.457032 6.867187l-8 32c-.890626 3.5625-4.09375 6.066407-7.769532 6.0625h-407.007812c-3.671875.003907-6.875-2.492187-7.769532-6.054687l-8-32c-.601562-2.394531-.066406-4.929687 1.453126-6.875 1.519531-1.945313 3.847656-3.082031 6.316406-3.078125h139.503906v24c0 4.417969 3.582031 8 8 8h128c4.417969 0 8-3.582031 8-8v-24h139.503906c2.464844 0 4.796875 1.136719 6.3125 3.078125zm-273.816406-3.078125h112v16h-112zm232-16h-352v-16h352zm0 0"/><path d="m456 339.3125v-294.625c-.011719-11.417969-9.269531-20.675781-20.6875-20.6875h-390.625c-11.417969.011719-20.675781 9.269531-20.6875 20.6875v294.625c.011719 11.417969 9.269531 20.675781 20.6875 20.6875h390.625c11.417969-.011719 20.675781-9.269531 20.6875-20.6875zm-20.6875 4.6875h-11.3125v-256h16v251.3125c-.003906 2.585938-2.101562 4.683594-4.6875 4.6875zm-390.625-304h390.625c2.585938.003906 4.683594 2.101562 4.6875 4.6875v27.3125h-400v-27.3125c.003906-2.585938 2.101562-4.683594 4.6875-4.6875zm-4.6875 299.3125v-251.3125h368v256h-363.3125c-2.585938-.003906-4.683594-2.101562-4.6875-4.6875zm0 0"/><path d="m56 48h16v16h-16zm0 0"/><path d="m80 48h16v16h-16zm0 0"/><path d="m104 48h16v16h-16zm0 0"/><path d="m408 48h16v16h-16zm0 0"/><path d="m96 240h64c4.417969 0 8-3.582031 8-8v-32c-.046875-14.289062-7.738281-27.457031-20.160156-34.519531 6.804687-10 5.109375-23.503907-3.964844-31.503907-9.070312-8-22.679688-8-31.75 0-9.074219 8-10.769531 21.503907-3.964844 31.503907-12.421875 7.0625-20.113281 20.230469-20.160156 34.519531v32c0 4.417969 3.582031 8 8 8zm24-88c0-4.417969 3.582031-8 8-8s8 3.582031 8 8-3.582031 8-8 8-8-3.582031-8-8zm-16 48c0-13.253906 10.746094-24 24-24s24 10.746094 24 24v24h-48zm0 0"/><path d="m384 232h-128c-4.417969 0-8 3.582031-8 8v80c0 4.417969 3.582031 8 8 8h128c4.417969 0 8-3.582031 8-8v-80c0-4.417969-3.582031-8-8-8zm-8 80h-112v-64h112zm0 0"/><path d="m192 104h-128c-4.417969 0-8 3.582031-8 8v144c0 4.417969 3.582031 8 8 8h128c4.417969 0 8-3.582031 8-8v-144c0-4.417969-3.582031-8-8-8zm-8 144h-112v-128h112zm0 0"/><path d="m296 304c3.046875.015625 5.839844-1.699219 7.199219-4.425781l8.800781-17.679688 8.800781 17.679688c1.355469 2.710937 4.125 4.425781 7.15625 4.425781s5.800781-1.714844 7.15625-4.425781l8.886719-17.703125 8.855469 17.703125 14.320312-7.148438-16-32c-1.5-2.523437-4.21875-4.070312-7.15625-4.070312-2.933593 0-5.652343 1.546875-7.15625 4.070312l-8.863281 17.695313-8.800781-17.695313c-1.5-2.523437-4.21875-4.070312-7.15625-4.070312-2.933594 0-5.652344 1.546875-7.15625 4.070312l-8.886719 17.679688-8.800781-17.679688-14.320313 7.148438 16 32c1.351563 2.703125 4.101563 4.410156 7.121094 4.425781zm0 0"/><path d="m72 280h112v16h-112zm0 0"/><path d="m104 312h48v16h-48zm0 0"/><path d="m296 120h96v16h-96zm0 0"/><path d="m232 120h48v16h-48zm0 0"/><path d="m296 152h96v16h-96zm0 0"/><path d="m232 152h48v16h-48zm0 0"/><path d="m296 184h96v16h-96zm0 0"/><path d="m232 184h48v16h-48zm0 0"/></g></svg>